<?xml version="1.0" encoding="UTF-8" standalone="no"?>
<!DOCTYPE svg PUBLIC "-//W3C//DTD SVG 1.1//EN" "http://www.w3.org/Graphics/SVG/1.1/DTD/svg11.dtd">
<svg width="100%" height="100%" viewBox="0 0 602 192" version="1.1" xmlns="http://www.w3.org/2000/svg" xmlns:xlink="http://www.w3.org/1999/xlink" xml:space="preserve" xmlns:serif="http://www.serif.com/" style="fill-rule:evenodd;clip-rule:evenodd;stroke-linejoin:round;stroke-miterlimit:2;">
    <g transform="matrix(1,0,0,1,-8.477732,-352.811153)">
        <g transform="matrix(1.953125,0,0,1.953125,0.135605,0.276435)">
            <path d="M206.874,186.981C235.097,169.639 255.561,192.299 258.194,194.794C266.637,205.929 266.559,208.94 268.186,218.655C269.145,224.378 269.656,214.428 286.426,207.265C295.752,205.277 298.434,205.184 305.393,209.645C308.418,213.164 308.318,213.112 311.482,216.5C314.342,241.023 305.921,277.498 302.583,277.789C291.259,278.775 291.273,278.148 160.496,278.114C13.204,278.076 12.461,277.982 11.882,276.337C1.406,246.564 4.622,211.13 5.137,205.458L8.228,205.974C21.881,216.033 24.454,214.621 27.554,215.232C27.486,216.349 27.418,217.466 27.35,218.583C25.995,218.461 18.812,217.812 11.427,212.61C7.505,209.847 8.653,215.133 8.62,215.497C8.414,217.88 6.208,220.714 11.824,225.048C18.872,230.486 24.31,231.32 25.507,231.504L25.043,234.513C14.692,231.536 9.457,225.695 12.925,230.403C18.909,238.526 19.196,238.25 23.467,247.485C23.35,247.717 23.388,247.704 22.258,250.5C20.173,247.865 6.486,215.962 8.934,238.423C11.651,272.063 15.635,273.089 18.475,273.82C18.85,274.309 18.005,275.115 19.5,275.155C21.747,275.214 21.8,275.626 21.898,275.46C22.241,274.883 21.373,274.032 21.715,273.456C22.618,273.515 23.521,273.574 24.424,273.633C25.461,273.702 26.499,273.771 27.536,273.84L37.544,273.771L46.537,273.813C51.341,272.896 49.615,270.936 49.805,268.444C52.51,264.896 52.691,265.093 53.767,262.677C66.717,246.689 81.64,234.629 105.443,237.693C125.133,243.68 124.332,245.307 141.682,256.233C147.504,259.899 158.006,261.496 159.479,261.72C162.505,261.903 165.531,262.086 168.558,262.269L167.435,263.107L164.465,264.359C151.425,263.165 150.658,265.43 139.708,258.143C134.007,254.35 125.606,247.566 121.49,245.758C119.951,245.082 121.136,246.47 123.276,251.609C128.29,263.647 117.847,272.934 118.608,274.007C118.969,274.515 250.069,273.67 261.501,273.596C273.868,273.517 280.658,276.702 276.379,270.596C267.663,258.157 291.16,248.006 286.754,261.594C285.191,266.416 294.975,260.114 289.115,254.979C282.231,248.945 264.092,262.308 262.382,263.284C224.397,284.978 191.114,260.545 186.766,259.009C159.96,252.998 150.59,244.871 129.218,230.922C91.716,206.445 66.305,226.389 59.048,236.088C55.772,240.058 56.081,240.05 53.452,244.48C52.547,246.499 51.643,248.519 50.739,250.539C50.081,249.513 49.423,248.486 48.764,247.459C51.084,244.247 51.078,244.257 51.082,244.246C55.25,234.177 57.322,235.498 59.357,231.446C60.373,229.422 49.981,233.369 49.554,233.523C49.256,231.488 49.499,229.81 49.545,229.491C60.279,235.128 80.628,197.606 129.271,226.916C150.987,240.002 150.432,242.039 175.532,245.127C223.863,251.073 233.675,209.925 226.502,208.506C225.468,208.302 227.246,209.568 223.053,221.217C195.867,258.165 142.775,213.811 119.459,204.608C87.497,191.992 62.252,213.713 51.982,214.841C52.164,213.773 52.345,212.705 52.527,211.637C60.796,208.508 60.58,208.394 68.675,204.897C100.117,191.315 107.381,199.359 135.397,204.948C148.456,207.553 163.153,217.123 171.368,214.085C180.128,210.846 173.136,200.301 169.742,206.629C164.567,216.281 160.296,195.446 174.494,193.467C199.227,190.02 187.703,224.323 206.513,224.345C224.894,224.367 214.985,210.102 215.291,209.326C217.084,204.782 222.122,217.486 223.02,213.344C226.038,199.429 198.521,197.484 206.875,216.381C210.119,223.719 184.405,208.778 206.874,186.981Z" style="fill:rgb(20,92,125);"/>
        </g>
    </g>
</svg>
