<?xml version="1.0" encoding="UTF-8" standalone="no"?>
<!DOCTYPE svg PUBLIC "-//W3C//DTD SVG 1.1//EN" "http://www.w3.org/Graphics/SVG/1.1/DTD/svg11.dtd">
<svg width="100%" height="100%" viewBox="0 0 2000 553" version="1.1" xmlns="http://www.w3.org/2000/svg" xmlns:xlink="http://www.w3.org/1999/xlink" xml:space="preserve" xmlns:serif="http://www.serif.com/" style="fill-rule:evenodd;clip-rule:evenodd;stroke-linejoin:round;stroke-miterlimit:2;">
    <g id="sp_logo_landscape.png" transform="matrix(1.953125,0,0,1.953125,0,0)">
        <path d="M1.5,0L1023.999,0C1026.399,2.629 1023.999,3.26 1023.999,44.5L1023.999,282.999C1020.28,285.424 1019.802,282.999 968.5,282.999L0,282.999C-2.71,280.289 0,275.333 0,271.5L0,0C0.098,-0.49 1.402,0.49 1.5,0Z" style="fill:rgb(254,254,254);"/>
        <path d="M206.874,186.981C235.097,169.639 255.561,192.299 258.194,194.794C266.637,205.929 266.559,208.94 268.186,218.655C269.145,224.378 269.656,214.428 286.426,207.265C295.752,205.277 298.434,205.184 305.393,209.645C308.418,213.164 308.318,213.112 311.482,216.5C314.342,241.023 305.921,277.498 302.583,277.789C291.259,278.775 291.273,278.148 160.496,278.114C13.204,278.076 12.461,277.982 11.882,276.337C1.406,246.564 4.622,211.13 5.137,205.458L8.228,205.974C21.881,216.033 24.454,214.621 27.554,215.232C27.486,216.349 27.418,217.466 27.35,218.583C25.995,218.461 18.812,217.812 11.427,212.61C7.505,209.847 8.653,215.133 8.62,215.497C8.414,217.88 6.208,220.714 11.824,225.048C18.872,230.486 24.31,231.32 25.507,231.504L25.043,234.513C14.692,231.536 9.457,225.695 12.925,230.403C18.909,238.526 19.196,238.25 23.467,247.485C23.35,247.717 23.388,247.704 22.258,250.5C20.173,247.865 6.486,215.962 8.934,238.423C11.651,272.063 15.635,273.089 18.475,273.82C18.85,274.309 18.005,275.115 19.5,275.155C21.747,275.214 21.8,275.626 21.898,275.46C22.241,274.883 21.373,274.032 21.715,273.456C22.618,273.515 23.521,273.574 24.424,273.633C25.461,273.702 26.499,273.771 27.536,273.84L37.544,273.771L46.537,273.813C51.341,272.896 49.615,270.936 49.805,268.444C52.51,264.896 52.691,265.093 53.767,262.677C66.717,246.689 81.64,234.629 105.443,237.693C125.133,243.68 124.332,245.307 141.682,256.233C147.504,259.899 158.006,261.496 159.479,261.72C162.505,261.903 165.531,262.086 168.558,262.269L167.435,263.107L164.465,264.359C151.425,263.165 150.658,265.43 139.708,258.143C134.007,254.35 125.606,247.566 121.49,245.758C119.951,245.082 121.136,246.47 123.276,251.609C128.29,263.647 117.847,272.934 118.608,274.007C118.969,274.515 250.069,273.67 261.501,273.596C273.868,273.517 280.658,276.702 276.379,270.596C267.663,258.157 291.16,248.006 286.754,261.594C285.191,266.416 294.975,260.114 289.115,254.979C282.231,248.945 264.092,262.308 262.382,263.284C224.397,284.978 191.114,260.545 186.766,259.009C159.96,252.998 150.59,244.871 129.218,230.922C91.716,206.445 66.305,226.389 59.048,236.088C55.772,240.058 56.081,240.05 53.452,244.48C52.547,246.499 51.643,248.519 50.739,250.539C50.081,249.513 49.423,248.486 48.764,247.459C51.084,244.247 51.078,244.257 51.082,244.246C55.25,234.177 57.322,235.498 59.357,231.446C60.373,229.422 49.981,233.369 49.554,233.523C49.256,231.488 49.499,229.81 49.545,229.491C60.279,235.128 80.628,197.606 129.271,226.916C150.987,240.002 150.432,242.039 175.532,245.127C223.863,251.073 233.675,209.925 226.502,208.506C225.468,208.302 227.246,209.568 223.053,221.217C195.867,258.165 142.775,213.811 119.459,204.608C87.497,191.992 62.252,213.713 51.982,214.841C52.164,213.773 52.345,212.705 52.527,211.637C60.796,208.508 60.58,208.394 68.675,204.897C100.117,191.315 107.381,199.359 135.397,204.948C148.456,207.553 163.153,217.123 171.368,214.085C180.128,210.846 173.136,200.301 169.742,206.629C164.567,216.281 160.296,195.446 174.494,193.467C199.227,190.02 187.703,224.323 206.513,224.345C224.894,224.367 214.985,210.102 215.291,209.326C217.084,204.782 222.122,217.486 223.02,213.344C226.038,199.429 198.521,197.484 206.875,216.381C210.119,223.719 184.405,208.778 206.874,186.981Z" style="fill:rgb(20,92,119);"/>
        <path d="M164.571,98.688C170.321,102.864 163.956,118.428 167.445,120.144C168.183,120.241 168.921,120.338 169.659,120.434C170.213,121.325 169.462,122.364 170.5,121.787C171.006,121.506 171.153,121.424 172.679,114.888L173.428,114.579C173.523,116.054 174.144,116.409 173.106,123.53C169.822,146.052 176.465,117.305 177.637,114.808L178.288,115.783C178.033,125.398 177.467,125.155 176.217,134.559C175.445,140.366 180.889,130.885 180.68,120.516C180.192,96.315 182.489,125.076 182.498,125.5C181.159,132.766 181.164,132.634 178.769,139.533C172.809,156.705 181.993,137.498 182.105,137.192C190.442,114.403 182.91,142.107 182.787,142.519C179.134,154.737 186.868,136.033 188.502,134.499C188.345,136.388 189.036,136.75 186.399,146.49C179.594,171.626 189.645,142.289 189.774,141.849C194.261,147.338 190.929,148.002 190.11,156.495C187.686,181.645 194.819,148.38 194.99,147.585C196.965,133.782 193.499,123.456 193.161,121.593C235.217,131.213 260.699,187.994 258.194,194.794C255.561,192.299 235.097,169.639 206.874,186.981C184.405,208.778 210.119,223.719 206.875,216.381C198.521,197.484 226.038,199.429 223.02,213.344C222.122,217.486 217.084,204.782 215.291,209.326C214.985,210.102 224.894,224.367 206.513,224.345C187.703,224.323 199.227,190.02 174.494,193.467C160.296,195.446 164.567,216.281 169.742,206.629C173.136,200.301 180.128,210.846 171.368,214.085C163.153,217.123 148.456,207.553 135.397,204.948C107.381,199.359 100.117,191.315 68.675,204.897C60.58,208.394 60.796,208.508 52.527,211.637C50.137,207.312 57.296,186.458 58.019,184.352C59.765,183.659 60.117,184.127 60.744,182.5C62.519,177.899 62.578,177.975 62.687,177.565C67.468,159.534 99.952,125.228 124.676,120.299C130.834,120.876 144.026,100.868 135.197,115.338C132.047,120.501 125.763,125.292 125.655,125.555C122.888,132.273 133.897,120.82 134.468,120.226L135.958,120.54C127.357,132.798 125.17,131.284 125.194,132.576C125.213,133.617 127.461,135.599 135.737,124.939C138.9,120.865 137.821,127.981 129.134,135.035C111.166,149.626 133.987,133.703 135.715,133.49C131.724,140.239 126.28,143.497 124.031,145.194C116.298,151.028 126.221,146.185 126.387,146.071C153.476,127.45 122.46,151.581 121.991,151.933C121.702,152.151 122.135,154.327 126.487,151.43C140.936,141.811 125.229,154.802 124.984,154.991C124.499,155.314 117.564,159.925 119.706,160.011C120.405,160.039 126.12,157.695 126.668,157.47C122.922,163.724 104.044,182.171 120.76,168.897C136.347,156.52 147.884,144.332 147.467,113.504C157.772,114.495 157.623,113.666 161.723,113.331C166.966,113.631 162.747,101.598 164.571,98.688Z" style="fill:rgb(247,163,4);"/>
        <path d="M819.103,157.772C818.726,158.064 818.049,157.446 817.672,157.739C817.041,158.228 812.333,167.724 803.49,167.661C783.504,167.519 807.572,128.068 804.414,125.632C801.502,123.385 802.102,126.502 795.318,140.411C776.476,179.042 765.965,166.185 764.873,163.338C763.18,158.929 761.945,162.233 758.2,165.103C739.347,179.548 736.294,142.502 751.899,123.826C766.342,106.541 775.759,117.108 777.147,116.093C781.62,112.82 781.985,114.253 787.515,114.311C792.351,114.362 780.624,136.778 777.331,149.448C777.211,149.912 775.963,162.341 783.061,151.227C798.328,127.322 795.993,121.825 794.928,119.318C791.363,110.929 799.591,103.05 804.657,105.05C809.812,107.085 807.111,116.033 807.083,116.542C806.957,118.903 808.284,117.788 812.535,118.297C827.539,120.093 807.528,142.465 808.3,153.51C809.404,169.309 825.981,127.946 830.859,122.826C847.278,105.589 852.061,119.052 855.245,116.247C859.364,112.617 859.904,114.49 865.486,114.585C870.449,114.669 852.792,148.941 854.329,154.56C856.863,163.822 869.148,134.698 869.984,132.717C874.522,121.958 886.795,109.355 896.531,114.444C902.274,117.446 900.689,112.065 914.485,77.494C918.966,66.266 930.642,70.263 929.298,73.42C909.219,120.573 900.886,147.91 900.361,151.479C899.038,160.461 907.68,153.508 913.034,142.264C922.796,121.764 918.336,114.301 933.475,114.899C937.998,115.077 932.918,125.063 932.399,126.46C931.649,128.477 917.196,167.347 929.123,153.162C950.083,128.232 941.456,108.456 954.572,105.791C969.987,102.658 953.93,120.152 955.842,125.368C960.105,136.991 962.44,136.262 963.433,148.526C963.533,149.756 966.554,150.396 971.933,135.656C984.365,101.592 1017.284,111.164 1006.174,132.327C999.622,144.808 997.073,142.19 983.619,145.996C980.743,146.81 982.54,153.478 984.769,155.189C996.008,163.809 1010.657,138.882 1010.74,138.82C1021.421,130.754 1003.277,172.818 979.597,167.058C968.407,164.336 972.676,149.833 966.237,156.219C948.175,174.133 936.692,167.292 933.776,162.335C929.305,154.733 928.575,169.122 917.489,167.573C909.305,166.429 912.651,152.993 908.239,159.241C902.11,167.922 891.695,171.123 888.343,162.56C885.624,155.614 884.602,164.301 877.629,166.875C868.543,170.229 868.086,166.812 865.179,157.645C864.192,154.529 848.089,180.387 842.078,160.638C840.801,156.441 825.493,181.725 819.103,157.772Z" style="fill:rgb(190,43,35);"/>
        <path d="M531.795,154.999C506.168,183.203 499.71,157.651 496.502,160.503C495.723,161.196 491.145,168.721 483.501,167.494C477.182,166.48 478.564,157.506 474.293,162.318C465.284,172.47 456.03,166.528 454.936,159.394C453.272,148.547 449.077,170.373 428.557,167.182C399.924,162.731 431.944,94.527 454.128,116.832C460.668,123.407 453.799,141.334 438.605,144.857C430.818,146.663 427.053,147.888 431.939,154.148C437.424,161.176 451.057,154.261 457.062,140.329C458.298,137.461 471.755,106.237 486.437,114.617C489.004,116.082 489.098,117.232 491.438,115.422C492.439,114.648 503.76,112.477 501.756,118.581C500.001,123.93 483.354,163.987 493.2,155.085C506.895,142.704 509.891,122.61 510.358,119.483C513.226,100.245 531.066,103.429 526.32,113.427C523.235,119.926 519.087,120.117 522.199,126.635C527.186,137.082 527.279,137.054 528.723,148.459C529.068,151.183 532.462,149.43 545.243,118.379C547.688,112.439 559.274,113.576 557.75,118.574C557.132,120.6 537.614,168.195 551.39,153.396C563.273,140.631 565.488,105.662 590.521,115.423C594.519,116.982 603.431,72.608 613.559,70.85C625.073,68.852 620.539,75.272 619.944,76.691C588.974,150.544 590.878,158.88 596.248,155.121C605.236,148.83 612.304,106.306 636.363,113.939C643.728,116.276 652.419,139.292 619.582,145.978C612.036,147.515 622.534,168.312 639.086,148.171C645.016,140.956 649.985,132.349 648.792,141.51C647.889,148.448 620.661,187.558 605.188,156.64C603.138,152.543 594.741,173.006 583.497,166.505C580.244,164.624 580.186,158.529 578.672,159.81C572.026,165.432 573.17,169.041 564.501,167.496C556.217,166.02 559.337,152.692 554.154,159.207C553.152,160.467 541.926,174.576 534.928,165.136C533.079,162.642 533.037,160.007 533.029,159.534C533.008,158.221 533.522,156.865 533.177,155.598C533.046,155.113 531.927,155.483 531.795,154.999Z" style="fill:rgb(189,43,35);"/>
        <path d="M763.109,93.452C754.234,134.318 719.375,122.652 717.258,129.431C716.621,131.472 704.052,189.383 670.376,176.813C643.101,166.633 667.416,109.316 692.211,123.953C693.629,124.79 703.013,137.566 689.55,133.267C669.209,126.771 658.739,177.185 681.53,170.575C697.514,165.94 705.22,90.681 727.804,71.856C732.051,68.316 736.821,66.899 731.551,65.371C694.378,54.591 678.304,97.239 695.45,94.08C696.648,93.86 707.445,86.446 706.882,97.545C706.085,113.255 670.026,107.832 679.71,80.581C687.337,59.115 720.112,54.333 733.543,57.285C767.722,64.797 763.126,86.349 763.109,93.452Z" style="fill:rgb(191,44,36);"/>
        <path d="M413.511,97.084C409.66,96.333 409.244,97.116 406.942,94.114C400.836,86.147 411.647,83.987 413.416,82.402C425.271,71.784 403.414,54.465 392.689,68.64C381.664,83.209 398.682,105.885 403.153,113.717C437.615,174.089 374.636,198.805 348.433,180.598C314.762,157.202 347.936,104.7 376.235,121.97C395.894,133.967 373.38,153.303 371.903,143.428C368.228,118.859 347.105,136.727 347.262,154.498C347.613,194.397 409.438,180.141 394.523,135.491C391.162,125.429 358.403,83.236 385.803,62.884C422.512,35.618 448.195,93.075 413.511,97.084Z" style="fill:rgb(189,43,35);"/>
        <path d="M171.591,73.704C172.589,74.22 173.588,74.736 174.586,75.252C176.179,77.085 188.705,93.142 182.415,81.534C179.955,76.996 179.385,77.529 176.372,73.317C183.953,74.026 187.586,86.774 189.629,87.035C193.59,87.542 184.224,76.879 184.378,74.17C185.399,74.845 189.463,77.533 194.096,85.976C198.992,94.9 196.845,81.864 189.698,75.335C189.976,74.834 190.253,74.334 190.531,73.834C199.289,78.899 203.654,101.971 203.216,91.474C203.089,88.43 198.497,78.591 198.528,78.511C198.857,77.665 200.96,76.965 205.141,87.726C212.103,105.644 205.937,83.842 205.83,83.518C206.331,83.225 206.832,82.932 207.334,82.639C207.514,83.031 207.823,83.355 208.003,83.747C212.979,94.577 217.005,106.326 215.113,96.431C214.973,95.703 214.931,95.769 212.661,87.499C213.743,86.897 213.624,86.888 214.282,86.694C215.233,88.553 219.886,102.804 221.501,101.501C222.429,100.754 215.81,84.72 223.039,94.78C224.745,97.529 224.567,97.402 229.772,107.332C232.346,112.242 234.574,102.914 222.363,85.581C225.297,84.664 247.303,98.601 262.292,113.695C267.659,119.101 299.05,150.712 305.633,198.483C306.923,207.846 306.926,207.692 306.909,208.5C306.883,209.736 305.417,208.534 305.393,209.645C298.434,205.184 295.752,205.277 286.426,207.265C278.117,198.884 287.27,144.667 211.46,103.568C206.8,101.042 181.702,92.558 178.5,93.237C177.756,93.395 177.786,94.834 177.042,94.992C167.059,87.079 165.327,83.585 145.923,79.007C145.437,74.669 156.404,79.849 156.793,79.861C159.382,79.943 155.736,78.813 155.53,75.832L158.281,76.931C162.808,79.865 166.948,83.09 164.649,78.512C164.599,77.843 164.549,77.175 164.499,76.506C170.059,81.39 170.6,81.283 170.651,80.69C170.769,79.346 162.965,71.398 167.429,73.754C168.341,74.236 186.511,92.991 174.263,77.596C172.659,75.578 172.552,75.857 171.591,73.704Z" style="fill:rgb(250,92,76);"/>
        <path d="M177.042,94.992C177.786,94.834 177.756,93.395 178.5,93.237C181.702,92.558 206.8,101.042 211.46,103.568C287.27,144.667 278.117,198.884 286.426,207.265C269.656,214.428 269.145,224.378 268.186,218.655C266.559,208.94 266.637,205.929 258.194,194.794C260.699,187.994 235.217,131.213 193.161,121.593C188.637,109.93 189.843,109.207 177.042,94.992Z" style="fill:rgb(250,114,69);"/>
        <path d="M96.788,79.625C97.399,80.472 97.459,80.16 98.458,80.403C98.292,80.607 89.15,94.64 98.666,83.69C99.131,83.155 110.725,69.816 105.855,78.517C105.844,78.536 100.77,84.1 100.6,85.477C100.229,88.488 106.043,81.787 106.416,81.356C107.84,83.757 108.373,83.638 110.709,82.034C113.922,84.643 113.957,82.177 117.464,80.354C118.834,79.98 120.204,79.605 121.574,79.23C121.188,81.146 121.315,81.056 121.188,81.146C96.274,98.848 91.753,101.252 65.918,133.807C65.311,134.044 65.107,132.225 64.5,132.462C62.248,133.342 62.741,133.721 57.396,141.434C57.198,141.719 54.103,143.589 52.943,146.684C50.711,152.638 49.308,151.789 46.669,157.586C46.033,158.985 45.913,158.906 37.898,174.68C37.504,175.456 35.166,184.768 34.945,185.65C34.945,185.65 36.524,188.328 36.661,188.56C29.207,212.064 30.105,212.464 27.554,215.232C24.454,214.621 21.881,216.033 8.228,205.974C8.38,205.331 9.393,205.137 9.546,204.494C10.407,200.87 10.586,197.116 11.205,193.443C17.168,158.061 37.353,132.361 40.912,127.83C64.157,98.235 79.143,98.29 82.675,86.702C84.393,85.315 83.945,84.666 86.361,84.309C86.082,84.636 85.729,85.05 84.675,89.412C83.309,95.066 88.014,86.501 88.198,86.165C90.043,87.149 89.924,87.666 91.685,86.85C93.694,83.757 93.16,83.588 95.561,80.633L96.788,79.625Z" style="fill:rgb(252,91,76);"/>
        <path d="M50.494,219.499C133.173,174.557 146.937,248.182 200.545,237.706C220.836,233.74 222.561,224.059 223.082,223.322C223.412,222.855 224.615,223.11 224.607,222.539C224.597,221.859 223.062,221.897 223.053,221.217C227.246,209.568 225.468,208.302 226.502,208.506C233.675,209.925 223.863,251.073 175.532,245.127C150.432,242.039 150.987,240.002 129.271,226.916C80.628,197.606 60.279,235.128 49.545,229.491C49.861,226.16 50.178,222.83 50.494,219.499Z" style="fill:rgb(2,199,233);"/>
        <path d="M115.861,9.283C113.856,8.25 99.283,2.857 107.493,3.442C108.395,3.506 132.396,7.279 140.117,25.66C146.975,41.983 145.271,42.534 141.178,59.594L140.851,60.459C141.169,61.845 141.488,63.231 141.807,64.616C139.431,68.448 138.611,70 138.357,70.481C138.313,70.637 137.814,72.435 137.814,72.435C137.933,72.538 137.814,72.435 139.488,71.396C139.976,71.036 141.126,70.711 143.162,67.411C146.103,62.644 145.631,62.524 149.311,58.111C151.359,58.202 151.267,58.236 153.15,57.309C152.598,56.371 152.045,55.434 151.493,54.496C159.651,45.869 159.846,46.258 169.254,39.179C174.264,41.084 174.242,40.708 179.5,41.499C179.419,48.263 169.298,37.449 169.544,44.247C167.546,45.01 167.344,44.355 165.59,45.756C165.59,45.756 164.455,46.06 164.356,46.086C162.517,46.997 162.729,47.029 161.537,48.573C155.297,54.024 163.77,49.341 164.051,49.251C168.282,48.806 168.283,48.228 173.709,50.12C174.011,50.225 191.384,56.526 175.485,53.703C173.803,53.232 172.121,52.762 170.44,52.291C164.903,49.753 164.415,51.666 164.794,52.274C165.048,52.683 165.699,53.731 170.689,53.501C171.303,53.905 171.056,54.01 171.649,54.402C171.828,54.52 171.649,54.402 173.998,55.701C167.946,59.469 159.614,55.139 164.514,60.451L163.56,61.729C157.628,58.005 148.51,65.626 147.481,66.486C146.12,67.736 145.928,67.329 144.568,68.578C144.411,68.722 144.568,68.578 145.791,70.944C138.351,74.852 138.125,74.785 138.058,75.5C137.877,77.411 143.18,75.15 144.492,75.388C146.242,75.705 145.931,74.848 147.672,74.195C148.306,74.301 152.836,75.059 155.53,75.832C155.736,78.813 159.382,79.943 156.793,79.861C156.404,79.849 145.437,74.669 145.923,79.007C141.295,81.651 141.123,79.514 135.942,78.822C134.489,79.866 134.146,79.534 133.762,81.236C133.205,83.397 132.779,83.358 133.541,85.5C135.415,90.772 129.64,92.608 134.471,95.491L133.261,97.419L130.565,99.728C126.812,103.578 126.913,103.654 126.511,103.886C119.865,107.728 127.806,101.803 130.342,94.563C129.569,93.809 128.796,93.055 128.023,92.301C128.92,90.354 129.817,88.407 130.714,86.46C130.755,85.142 130.526,85.357 129.372,83.428C130.151,82.164 130.367,82.35 130.309,80.705C128.672,76.6 128.22,77.078 124.777,74.176C88.527,51.513 49.945,81.18 51.547,90.535C50.049,92.724 49.102,93.271 51.327,94.66C43.914,102.931 35.334,123.048 39.237,109.472C40.932,103.576 53.587,59.556 100.51,63.37C101.047,63.413 113.777,66.524 116.088,64.008C118.477,61.407 106.046,63.564 102.51,58.501C103.433,58.114 104.355,57.728 105.277,57.341C106.831,58.419 106.628,58.681 108.499,58.504C109.093,58.787 109.687,59.071 110.282,59.355C111.168,59.303 114.161,58.339 118.619,59.092C118.921,59.884 119.223,60.675 119.526,61.467C117.988,64.736 120.624,63.467 124.093,64.673L124.874,65.272C123.395,67.491 122.724,67.587 123.588,68.29C129.762,73.315 128.982,74.043 129.52,74.469C131.231,75.823 128.993,68.016 128.838,67.476C122.917,46.745 95.61,21.952 65.423,32.186C60.68,33.794 58.038,32.018 58.638,36.91C45.771,44.515 44.941,45.135 43.829,45.966C31.383,55.263 44.154,38.373 58.449,32.376C102.062,14.078 123.247,52.257 125.712,54.169C134.419,60.922 126.226,50.988 126.053,50.778C128.921,50.612 129.077,50.735 129.091,50.453C129.164,48.981 128.768,49.185 127.562,47.5C129.601,43.862 130.444,47.131 134.765,53.384C132.964,53.526 133.435,54.557 131.809,54.517C128.826,57.955 131.466,58.207 134.321,64.741C134.842,65.252 135.362,65.763 135.883,66.274C134.441,67.108 133.877,66.757 132.824,71.444C132.888,79.558 136.663,66.998 136.809,66.512C138.268,62.348 149.931,29.046 125.488,12.532C112.664,3.869 127.567,16.824 127.878,17.094C127.709,17.682 124.519,20.47 128.824,23.323C131.567,25.141 131.726,24.922 131.839,25.182C132.402,26.477 129.781,25.524 130.336,26.801C129.52,26.399 126.521,27.396 114.86,22.059C106.436,18.204 119.083,21.047 119.448,21.13C120.612,20.763 120.604,20.9 121.097,19.923C112.378,16.656 112.372,15.488 113.036,15.14C114.548,14.352 128.231,18.942 124.447,15.559C124.339,15.463 98.599,9.078 115.496,10.492C117.5,11.927 117.307,11.888 117.5,11.927C118.263,12.082 120.471,9.702 115.861,9.283Z" style="fill:rgb(42,101,36);"/>
        <path d="M186.766,259.009C191.114,260.545 224.397,284.978 262.382,263.284C264.092,262.308 282.231,248.945 289.115,254.979C294.975,260.114 285.191,266.416 286.754,261.594C291.16,248.006 267.663,258.157 276.379,270.596C280.658,276.702 273.868,273.517 261.501,273.596C250.069,273.67 118.969,274.515 118.608,274.007C117.847,272.934 128.29,263.647 123.276,251.609C121.136,246.47 119.951,245.082 121.49,245.758C125.606,247.566 134.007,254.35 139.708,258.143C150.658,265.43 151.425,263.165 164.465,264.359C164.766,264.336 168.222,264.063 168.222,264.063C168.476,263.738 167.18,263.433 167.435,263.107L168.558,262.269C169.682,262.241 176.714,262.063 182.488,260.388C183.914,259.929 185.34,259.469 186.766,259.009Z" style="fill:rgb(32,138,218);"/>
        <path d="M206.709,195.492C212.053,186.824 239.59,177.796 247.669,210.462C248.105,211.793 248.541,213.125 248.977,214.456L249.803,215.512C244.801,244.624 214.024,272.827 158.691,246.243C134.322,234.535 185.252,258.858 211.386,242.308C212.333,241.709 212.251,241.818 213.332,241.204C215.278,242.034 215.132,242.119 215.278,242.034C246.877,223.767 231.387,185.811 208.503,195.538C207.905,195.523 207.307,195.507 206.709,195.492Z" style="fill:rgb(3,197,232);"/>
        <path d="M130.714,86.46C129.817,88.407 128.92,90.354 128.023,92.301C126.036,96.304 123.327,99.68 126.499,97.594C128.698,96.148 128.172,95.716 130.342,94.563C127.806,101.803 119.865,107.728 126.511,103.886C126.913,103.654 126.812,103.578 130.565,99.728C132.87,100.76 131.567,101.401 130.054,103.249C128.936,104.616 125.5,107.871 125.435,108.496C125.028,112.396 132.132,103.981 133.488,102.429C131.839,108.4 130.958,107.786 126.859,112.654C123.313,116.863 129.961,111.328 133.419,110.49C129.314,115.882 127.727,114.391 124.676,120.299C99.952,125.228 67.468,159.534 62.687,177.565C62.578,177.975 62.519,177.899 60.744,182.5C60.117,184.127 59.765,183.659 58.019,184.352C76.344,123.031 128.124,86.671 130.714,86.46Z" style="fill:rgb(249,110,67);"/>
        <path d="M125.432,80.149C127.058,80.334 128.683,80.519 130.309,80.705C130.367,82.35 130.151,82.164 129.372,83.428C87.841,108.331 48.379,172.877 47.547,220.508C47.533,221.315 44.595,235.341 46.187,258.508C47.063,271.251 47.684,271.207 46.537,273.813L37.544,273.771C37.047,175.466 65.895,159.84 64.807,146.648C71.025,136.52 71.522,137.06 78.803,127.756C101.555,98.684 116.209,91.766 115.983,90.815C115.806,90.071 114.511,89.964 114.334,89.22C120.298,85.097 120.927,85.918 125.432,80.149Z" style="fill:rgb(167,82,32);"/>
        <path d="M61.293,236.242C74.809,223.564 96.469,212.759 130.583,235.383C162.144,256.313 163.742,253.046 182.488,260.388C176.714,262.063 169.682,262.241 168.558,262.269C165.531,262.086 162.505,261.903 159.479,261.72C157.374,258.26 156.094,259.527 154.686,259.145C141.702,255.62 138.175,247.893 124.432,241.753C124.98,240.192 125.018,240.106 123.784,239.228C81.987,209.476 48.578,250.868 53.767,262.677C52.691,265.093 52.51,264.896 49.805,268.444C49.493,259.322 49.075,259.389 50.739,250.539C51.643,248.519 52.547,246.499 53.452,244.48C53.954,245.811 54.29,246.425 55.106,245.274C58.327,240.729 57.468,240.267 61.293,236.242Z" style="fill:rgb(2,195,232);"/>
        <path d="M164.514,60.451C174.897,61.196 190.679,55.743 210.865,72.068C226.236,84.499 241.322,85.752 268.021,112.928C302.532,148.056 312.943,199.441 311.482,216.5C308.318,213.112 308.418,213.164 305.393,209.645C305.417,208.534 306.883,209.736 306.909,208.5C306.926,207.692 306.923,207.846 305.633,198.483C299.05,150.712 267.659,119.101 262.292,113.695C247.303,98.601 225.297,84.664 222.363,85.581C221.494,84.475 220.624,83.368 219.754,82.262C219.027,81.988 218.299,81.715 217.572,81.441C194.241,59.037 174.738,58.155 145.791,70.944C144.568,68.578 144.411,68.722 144.568,68.578C145.928,67.329 146.12,67.736 147.481,66.486C147.965,66.398 148.015,67.643 148.499,67.555C149.671,67.34 150.523,66.291 151.579,65.737C152.473,65.266 152.661,65.168 163.56,61.729L164.514,60.451Z" style="fill:rgb(171,52,24);"/>
        <path d="M723.022,108.382C723.862,105.187 734.442,64.951 742.228,71.823C757.793,85.56 742.91,122.251 721.378,119.893C720.454,119.792 720.026,119.257 723.022,108.382Z" style="fill:rgb(253,253,252);"/>
        <path d="M296.604,225.603C296.543,227.128 295.857,227.716 297.459,227.79C304.535,228.119 299.722,214.345 289.536,217.671C262.926,226.359 280.242,258.914 217.504,266.002L216.517,266.031C195.289,264.626 194.834,259.747 196.507,259.85C203.621,260.286 203.482,260.268 210.425,259.218C210.653,259.364 212.686,260.664 213.503,260.621C253.545,258.52 272.076,223.669 281.614,216.722C303.624,200.688 314.313,231.877 297.493,231.651C290.445,231.557 290.812,222.897 296.604,225.603Z" style="fill:rgb(4,196,232);"/>
        <path d="M90.491,68.637C89.21,70.299 87.928,71.961 86.647,73.623C85.509,73.281 86.454,72.385 85.233,72.017C85.119,71.983 85.068,71.968 83.978,72.82C79.701,76.165 79.807,76.143 79.433,76.417C74.008,76.311 74.755,81.426 74.721,81.515C73.493,82.018 67.196,84.599 65.869,95.541C65.818,95.96 67.48,98.111 70.136,92.439C70.98,92.205 71.825,91.972 72.669,91.738C75.549,91.09 74.839,90.229 75.927,88.882C82.405,94.715 77.99,86.771 77.847,86.578C78.217,85.931 82.462,78.493 82.462,78.493C82.749,78.217 86.019,78.335 82.45,83.466C80.728,86.246 82.611,86.558 82.675,86.702C79.143,98.29 64.157,98.235 40.912,127.83C37.353,132.361 17.168,158.061 11.205,193.443C10.586,197.116 10.407,200.87 9.546,204.494C9.393,205.137 8.38,205.331 8.228,205.974L5.137,205.458C5.829,199.767 8.321,164.216 35.948,126.845C54.289,102.036 67.196,102.68 64.285,86.838L65.292,84.467C65.86,84.455 66.079,85.513 66.647,85.5C67.575,85.479 66.491,84.801 68.247,81.466C70.013,80.156 71.779,78.846 73.545,77.535C74.638,76.314 75.73,75.093 76.823,73.872C82.093,68.367 82.919,69.849 90.491,68.637Z" style="fill:rgb(170,54,26);"/>
        <path d="M64.807,146.648C65.895,159.84 37.047,175.466 37.544,273.771L27.536,273.84C28.131,264.518 30.205,196.402 64.807,146.648Z" style="fill:rgb(205,123,61);"/>
        <path d="M121.574,79.23C123.648,79.443 123.585,79.265 125.432,80.149C120.927,85.918 120.298,85.097 114.334,89.22C88.57,109.391 29.73,157.123 24.424,273.633C23.521,273.574 22.618,273.515 21.715,273.456L21.453,272.508C21.445,268.498 22.179,252.26 22.258,250.5C23.388,247.704 23.35,247.717 23.467,247.485C23.648,246.455 24.002,244.444 25.043,234.513L25.507,231.504C26.085,228.483 26.663,225.463 27.241,222.443C27.566,220.475 27.687,220.656 27.35,218.583C27.418,217.466 27.486,216.349 27.554,215.232C30.105,212.464 29.207,212.064 36.661,188.56C47.838,159.521 50.239,156.428 65.918,133.807C91.753,101.252 96.274,98.848 121.188,81.146C121.315,81.056 121.188,81.146 121.574,79.23Z" style="fill:rgb(118,47,13);"/>
        <path d="M129.372,83.428C130.526,85.357 130.755,85.142 130.714,86.46C128.124,86.671 76.344,123.031 58.019,184.352C57.296,186.458 50.137,207.312 52.527,211.637C52.345,212.705 52.164,213.773 51.982,214.841C51.486,216.394 50.99,217.946 50.494,219.499C50.178,222.83 49.861,226.16 49.545,229.491C49.499,229.81 49.256,231.488 49.554,233.523C48.36,241.279 48.873,244.697 48.764,247.459C49.423,248.486 50.081,249.513 50.739,250.539C49.075,259.389 49.493,259.322 49.805,268.444C49.615,270.936 51.341,272.896 46.537,273.813C47.684,271.207 47.063,271.251 46.187,258.508C44.595,235.341 47.533,221.315 47.547,220.508C48.379,172.877 87.841,108.331 129.372,83.428Z" style="fill:rgb(107,40,13);"/>
        <path d="M304.879,254.524C304.819,254.846 304.706,267.507 293.481,271.446C287.505,273.543 280.866,272.026 278.924,269.199C272.335,259.609 287.72,254.486 284.316,260.401C279.731,268.367 297.198,268.038 293.328,256.546C286.192,235.357 261.206,272.924 221.601,270.026C216.787,269.674 213.562,269.798 216.517,266.031L217.504,266.002C218.221,266.234 217.906,267.736 218.624,267.968C224.518,269.873 239.553,264.629 241.291,264.023C242.045,264.498 242.352,266.057 250.631,261.806C267.534,253.127 267.12,249.982 274.687,246.933C294.518,238.943 298.32,247.71 304.879,254.524Z" style="fill:rgb(3,195,230);"/>
        <path d="M524.471,197.875C543.731,201.306 529.707,213.758 528.67,214.678C527.884,215.377 529.082,215.323 534.945,226.239C535.098,226.524 539.978,230.795 536.603,230.889C520.682,231.332 525.259,216.79 519.465,217.115C517.739,217.211 516.004,224.351 519.323,228.633C521.968,232.044 504.782,232.396 508.332,228.375C509.108,227.496 512.53,208.767 507.633,199.45C507.004,198.253 508.094,197.721 524.471,197.875Z" style="fill:rgb(188,43,35);"/>
        <path d="M713.506,197.782C714.107,197.787 728.607,196.233 731.002,202.716C731.308,203.545 733.59,209.723 728.469,213.462C724.325,216.489 728.112,217.054 730.325,221.59C730.912,222.792 731.401,224.042 731.995,225.241C733.126,227.528 737.575,230.153 734.639,230.829C724.34,233.198 725.331,228.921 720.343,219.592C717.139,213.599 711.317,221.089 717.211,228.703C719.734,231.962 702.927,232.105 705.714,228.666C709.359,224.17 707.738,202.058 706.432,200.553C702.689,196.241 707.736,197.88 713.506,197.782Z" style="fill:rgb(192,43,35);"/>
        <path d="M67.18,252.187C114.816,216.326 137.171,267.462 110.467,273.309C95.455,276.595 95.97,253.753 104.516,259.48C104.997,259.802 101.611,270.555 109.595,267.845C121.556,263.787 112.853,234.72 70.635,254.793C69.248,255.453 65.615,257.18 55.504,266.616L54.844,265.551C60.517,258.273 60.681,258.671 67.18,252.187Z" style="fill:rgb(41,205,236);"/>
        <path d="M114.334,89.22C114.511,89.964 115.806,90.071 115.983,90.815C116.209,91.766 101.555,98.684 78.803,127.756C71.522,137.06 71.025,136.52 64.807,146.648C30.205,196.402 28.131,264.518 27.536,273.84C26.499,273.771 25.461,273.702 24.424,273.633C29.73,157.123 88.57,109.391 114.334,89.22Z" style="fill:rgb(236,163,99);"/>
        <path d="M51.982,214.841C62.252,213.713 87.497,191.992 119.459,204.608C142.775,213.811 195.867,258.165 223.053,221.217C223.062,221.897 224.597,221.859 224.607,222.539C224.615,223.11 223.412,222.855 223.082,223.322C222.561,224.059 220.836,233.74 200.545,237.706C146.937,248.182 133.173,174.557 50.494,219.499C50.99,217.946 51.486,216.394 51.982,214.841Z" style="fill:rgb(123,221,245);"/>
        <path d="M105.443,237.693C81.64,234.629 66.717,246.689 53.767,262.677C48.578,250.868 81.987,209.476 123.784,239.228C125.018,240.106 124.98,240.192 124.432,241.753C111.087,235.521 107.361,237.129 105.443,237.693Z" style="fill:rgb(27,136,218);"/>
        <path d="M784.094,224.505C784.809,228.362 789.207,229.082 785.601,230.64C785.036,230.884 774.798,235.305 778.565,227.533C779.243,226.134 779.885,202.482 778.317,200.65C775.427,197.274 785.032,193.826 790.231,202.659C799.237,217.963 800.164,221.597 800.604,218.55C800.775,217.36 800.266,217.572 800.091,203.535C800.054,200.542 795.907,197.801 799.53,197.738C807.02,197.608 806.834,199.002 806.606,199.54C801.395,211.807 810.014,235.339 798.494,230.511C796.028,229.478 783.309,202.978 783.682,209.544C784.108,217.045 783.885,216.921 784.094,224.505Z" style="fill:rgb(192,45,37);"/>
        <path d="M135.942,78.822C136.303,79.126 135.277,79.901 135.638,80.205C139.134,83.149 139.756,82.041 143.148,84.966C144.172,87.393 144.005,87.516 146.191,88.81L146.709,90.243C145.333,91.489 145.805,93.75 144.701,92.061C144.401,91.603 132.95,74.091 139.627,87.466C145.805,99.841 145.126,99.998 147.467,113.504C147.884,144.332 136.347,156.52 120.76,168.897C104.044,182.171 122.922,163.724 126.668,157.47C126.107,156.644 125.546,155.817 124.984,154.991C125.229,154.802 140.936,141.811 126.487,151.43C122.135,154.327 121.702,152.151 121.991,151.933C122.46,151.581 153.476,127.45 126.387,146.071C126.221,146.185 116.298,151.028 124.031,145.194C126.28,143.497 131.724,140.239 135.715,133.49C137.435,128.982 142.987,121.416 139.394,120.04C136.129,118.79 139.559,117.939 140.369,114.48C140.982,111.861 140.534,111.758 142.194,109.504C142.621,121.024 142.916,120.964 141.168,132.396C136.653,149.134 130.227,154.262 129.444,156.464C125.162,168.517 133.474,153.931 133.677,153.574C140.014,142.453 154.396,122.673 137.863,88.186C135.879,84.614 135.911,84.766 133.762,81.236C134.146,79.534 134.489,79.866 135.942,78.822Z" style="fill:rgb(43,95,30);"/>
        <path d="M750.915,201.634C752.128,198.932 751.416,198.215 753.565,197.805C765.671,195.491 761.513,202.779 765.091,214.614C769.778,230.118 771.957,230.374 770.65,230.779C769.779,231.049 754.447,235.798 759.697,227.605C764.654,219.871 740.824,216.065 749.236,229.567C750.558,231.688 737.112,231.789 739.683,228.628C743.231,224.266 744.739,218.869 750.915,201.634Z" style="fill:rgb(189,44,36);"/>
        <path d="M652.919,225.451C650.069,214.444 635.81,222.603 641.381,228.608C643.637,231.04 634.104,230.92 633.443,230.912C629.221,230.859 633.426,228.868 636.17,222.362C645.501,200.24 644,197.674 649.499,197.596C656.415,197.498 657.871,222.459 663.515,228.487C666.195,231.35 652.44,231.761 651.417,230.593C649.395,228.285 652.56,228.464 652.919,225.451Z" style="fill:rgb(190,44,36);"/>
        <path d="M689.939,205.505C689.479,201.61 689.745,201.522 689.061,200.857C684.002,195.933 700.231,196.69 698.562,199.532C691.518,211.525 701.925,226.873 688.488,230.457C663.444,237.136 672.416,204.345 669.343,200.623C665.574,196.058 681.945,196.738 680.569,199.53C679.145,202.419 677.967,202.309 678.439,221.503C678.558,226.352 681.923,227.39 682.48,227.562C692.787,230.743 689.948,207.012 689.939,205.505Z" style="fill:rgb(191,43,35);"/>
        <path d="M557.497,201.03C549.089,201.653 552.514,216.935 559.782,209.823C563.723,205.965 565.065,222.736 558.765,216.179C557.847,215.225 553.519,214.253 553.467,217.498C553.329,226.108 553.385,230.454 561.317,227.124C562.122,226.786 567.659,218.213 567.939,223.397C568.459,233.054 564.173,230.886 554.495,230.886C543.451,230.885 543.066,230.344 543.189,229.44C543.245,229.028 545.312,227.563 545.364,225.487C546.019,199.216 542.336,197.769 544.556,197.742C558.969,197.565 567.803,197.117 567.819,200.488C567.821,200.92 567.842,205.709 565.518,205.377C561.654,204.826 563.028,201.71 557.497,201.03Z" style="fill:rgb(190,45,37);"/>
        <path d="M574.874,225.511C575.555,221.696 577.543,222.127 579.731,225.335C581.106,227.351 584.21,228.425 586.57,227.704C596.25,224.747 581.681,215.745 580.739,215.164C574.669,211.413 568.926,194.307 594.61,198.012C598.196,198.529 598.069,210.753 592.229,202.692C588.111,197.009 576.751,204.816 587.629,210.228C608.072,220.399 593.551,230.846 586.472,231.12C572.694,231.653 575.067,226.907 574.874,225.511Z" style="fill:rgb(191,45,36);"/>
        <path d="M296.604,225.603C290.812,222.897 290.445,231.557 297.493,231.651C314.313,231.877 303.624,200.688 281.614,216.722C272.076,223.669 253.545,258.52 213.503,260.621C212.686,260.664 210.653,259.364 210.425,259.218C241.947,253.665 251.639,246.248 271.501,222.501C283.452,208.213 298.273,205.577 305.024,213.902C317.356,229.112 291.605,241.922 290.339,228.523C289.593,220.629 300.572,220.926 296.604,225.603Z" style="fill:rgb(115,221,244);"/>
        <path d="M625.5,197.784C633.173,198.709 637.092,200.982 631.262,206.231C628.73,208.51 621.621,196.106 621.355,202.46C620.415,224.897 622.113,226.933 623.454,228.541C626.541,232.243 607.081,232.446 612.067,228.134C613.621,226.79 613.154,213.906 613.114,203.512C613.112,202.968 611.207,197.195 606.646,205.604C603.733,210.976 600.549,198.033 604.545,197.834C606.22,197.751 606.097,197.83 625.5,197.784Z" style="fill:rgb(189,43,35);"/>
        <path d="M841.954,203.498C841.349,212.364 835.29,197.147 831.778,201.726C831.262,202.399 830.877,225.481 831.978,227.178C833.447,229.443 835.417,230.803 832.585,230.872C831.69,230.894 819.621,231.187 821.634,228.603C824.209,225.297 824.979,199.753 820.46,201.344C818.37,202.079 813.106,211.113 812.912,204.491C812.637,195.067 817.013,197.795 826.5,197.796C830.296,197.797 840.381,197.871 840.438,197.88C842.63,198.212 841.606,199.154 841.954,203.498Z" style="fill:rgb(185,40,33);"/>
        <path d="M206.709,195.492C207.466,196.268 207.495,196.014 208.503,195.538C231.387,185.811 246.877,223.767 215.278,242.034C215.132,242.119 215.278,242.034 213.332,241.204C247.298,221.457 222.79,181.323 204.711,201.676C201.29,205.527 204.032,212.765 201.5,208.177C191.178,189.477 247.564,162.345 249.803,215.512L248.977,214.456C248.541,213.125 248.105,211.793 247.669,210.462C239.59,177.796 212.053,186.824 206.709,195.492Z" style="fill:rgb(121,221,246);"/>
        <path d="M56.022,269.335C83.859,240.602 120.203,251.25 110.181,264.19C105.563,270.154 107.847,261.899 107.92,261.636C110.795,251.249 89.285,256.533 97.18,270.621C100.81,277.101 94.963,272.589 94.801,272.266C94.045,270.766 88.697,260.149 77.493,260.384C66.659,260.61 63.633,267.167 56.022,269.335Z" style="fill:rgb(30,137,217);"/>
        <path d="M59.048,236.088C66.305,226.389 91.716,206.445 129.218,230.922C150.59,244.871 159.96,252.998 186.766,259.009C185.34,259.469 183.914,259.929 182.488,260.388C163.742,253.046 162.144,256.313 130.583,235.383C96.469,212.759 74.809,223.564 61.293,236.242L59.048,236.088Z" style="fill:rgb(126,221,245);"/>
        <path d="M8.934,238.423C6.486,215.962 20.173,247.865 22.258,250.5C22.179,252.26 21.445,268.498 21.453,272.508C20.035,273.502 20.198,273.596 18.475,273.82C15.635,273.089 11.651,272.063 8.934,238.423Z" style="fill:rgb(26,152,223);"/>
        <path d="M173.302,199.161C186.31,194.769 194.45,213.263 180.139,223.211C177.589,224.984 177.082,224.238 175.563,226.889C166.079,227.434 164.478,227.412 147.509,215.486C147.965,215.426 148.175,213.748 150.5,215.095C154.374,217.338 154.638,216.362 158.66,218.188C164.768,220.961 177.336,218.702 179.718,212.598C183.349,203.287 175.014,200.498 173.302,199.161Z" style="fill:rgb(3,197,234);"/>
        <path d="M263.996,226.941C262.376,228.828 252.714,240.086 240.247,247.007C235.772,249.492 225.082,254.549 229.525,250.516C234.034,246.424 234.445,247.112 239.085,243.13C239.634,243.204 240.481,245.44 243.359,241.368C247.623,235.336 257.536,229.017 254.773,206.47C254.135,201.262 250.139,194.4 252.528,196.54C260.598,203.766 262.162,218.539 263.996,226.941Z" style="fill:rgb(6,197,233);"/>
        <path d="M839.098,129.286C841.251,125.859 840.664,125.56 843.794,122.825C857.682,110.695 844.117,151.894 836.469,155.442C834.561,156.327 826.778,154.463 839.098,129.286Z" style="fill:rgb(253,252,252);"/>
        <path d="M479.831,143.642C479.261,144.708 468.574,164.677 467.591,152.492C466.296,136.429 486.917,109.608 485.755,125.509C485.468,129.442 480.394,142.224 479.831,143.642Z" style="fill:rgb(254,253,252);"/>
        <path d="M760.097,132.297C763.111,126.871 762.712,126.68 765.512,123.511C779.273,107.931 767.666,151.883 758.558,155.625C756.828,156.336 749.518,154.995 760.097,132.297Z" style="fill:rgb(253,253,252);"/>
        <path d="M570.099,151.501C570.442,149.038 573.179,129.407 581.586,122.613C598.453,108.985 573.65,173.561 570.099,151.501Z" style="fill:rgb(254,253,253);"/>
        <path d="M877.91,148.538C878.389,146.31 882.196,128.612 889.529,122.535C907.657,107.513 877.491,179.585 877.91,148.538Z" style="fill:rgb(253,252,251);"/>
        <path d="M145.791,70.944C174.738,58.155 194.241,59.037 217.572,81.441C218.597,82.261 218.5,82.171 219.754,82.262C220.624,83.368 221.494,84.475 222.363,85.581C234.574,102.914 232.346,112.242 229.772,107.332C224.567,97.402 224.745,97.529 223.039,94.78C225.32,91.674 224.756,91.155 221.969,88.405L219.616,87.397C216.731,84.079 216.832,84.27 213.857,81.115C210.296,78.265 210.659,77.994 204.381,73.658L200.613,71.276C196.89,69.6 174.94,59.718 149.585,71.633C148.245,72.263 143.116,72.834 147.672,74.195C145.931,74.848 146.242,75.705 144.492,75.388C143.18,75.15 137.877,77.411 138.058,75.5C138.125,74.785 138.351,74.852 145.791,70.944Z" style="fill:rgb(101,152,44);"/>
        <path d="M212.521,30.922C211.656,30.308 212.656,26.827 197.5,27.516C166.074,28.944 148.955,53.25 141.807,64.616C141.488,63.231 141.169,61.845 140.851,60.459C141.813,60.947 141.706,60.425 142.607,59.796C163.597,20.499 212.801,18.802 234.297,35.722C239.091,39.495 232.015,36.927 213.537,31.8L212.521,30.922Z" style="fill:rgb(41,101,32);"/>
        <path d="M290.725,220.515C282.919,230.29 291.312,242.856 306.502,233.453C308.844,232.003 307.423,234.657 306.426,247.442L305.502,247.118C288.685,225.91 264.183,249.796 270.832,240.65C285.46,220.53 287.375,220.498 290.725,220.515Z" style="fill:rgb(29,137,220);"/>
        <path d="M263.996,226.941C262.162,218.539 260.598,203.766 252.528,196.54C250.139,194.4 254.135,201.262 254.773,206.47C257.536,229.017 247.623,235.336 243.359,241.368C240.481,245.44 239.634,243.204 239.085,243.13C241.879,239.885 267.229,210.449 243.174,189.757C221.322,170.96 276.256,202.302 263.996,226.941Z" style="fill:rgb(127,223,244);"/>
        <path d="M138.554,94.471C141.071,101.881 141.011,101.728 142.194,109.504C140.534,111.758 140.982,111.861 140.369,114.48C139.559,117.939 136.129,118.79 139.394,120.04C142.987,121.416 137.435,128.982 135.715,133.49C133.987,133.703 111.166,149.626 129.134,135.035C137.821,127.981 138.9,120.865 135.737,124.939C127.461,135.599 125.213,133.617 125.194,132.576C125.17,131.284 127.357,132.798 135.958,120.54C135.991,120.382 136.379,118.567 136.379,118.567C136.194,118.484 136.379,118.567 134.468,120.226C133.897,120.82 122.888,132.273 125.655,125.555C125.763,125.292 132.047,120.501 135.197,115.338C144.026,100.868 130.834,120.876 124.676,120.299C127.727,114.391 129.314,115.882 133.419,110.49L135.369,108.103C137.433,106.683 137.541,106.854 138.742,104.581C139.85,102.93 138.622,103.191 138.189,102.41L137.636,101.501L137.088,100.227C136.772,99.194 136.456,98.162 136.139,97.13C136.394,96.623 136.431,96.684 138.554,94.471Z" style="fill:rgb(54,98,31);"/>
        <path d="M100.47,68.893C101.966,68.977 116.231,69.781 118.546,73.799C118.876,73.795 119.174,73.555 119.503,73.552C120.681,73.539 122.346,74.651 122.567,74.798C124.676,76.206 124.276,74.317 124.777,74.176C128.22,77.078 128.672,76.6 130.309,80.705C128.683,80.519 127.058,80.334 125.432,80.149C123.585,79.265 123.648,79.443 121.574,79.23C120.204,79.605 118.834,79.98 117.464,80.354C116.015,79.176 116.239,78.067 114.5,78.973C111.133,80.726 110.381,77.962 107.365,80.314L106.416,81.356C106.043,81.787 100.229,88.488 100.6,85.477C100.77,84.1 105.844,78.536 105.855,78.517C110.725,69.816 99.131,83.155 98.666,83.69C89.15,94.64 98.292,80.607 98.458,80.403C100.91,77.696 102.991,75.787 103.405,75.407C111.717,73.97 110.238,71.418 109.657,71.272C109.157,71.148 109.299,71.628 103.593,73.438C101.307,71.943 100.829,74.135 96.788,79.625L95.561,80.633L94.499,80.499C94.489,79.196 94.459,79.252 93.473,78.443C95.246,76.617 94.846,76.518 95.622,74.113C97.424,73.058 97.189,73.058 98.802,71.706C99.358,70.768 99.914,69.83 100.47,68.893Z" style="fill:rgb(54,102,36);"/>
        <path d="M147.436,82.592C149.051,81.659 149.243,80.741 156.555,84.322C201.97,106.562 191.667,143.744 193.259,146.5C193.599,147.09 194.649,146.995 194.99,147.585C194.819,148.38 187.686,181.645 190.11,156.495C190.929,148.002 194.261,147.338 189.774,141.849C193.588,136.308 189.972,128.62 188.385,121.518C187.536,119.416 186.686,117.314 185.836,115.211C185.31,114.35 185.509,114.423 185.066,113.699C184.956,113.518 185.066,113.699 183.646,111.467C182.736,110.022 181.826,108.577 180.916,107.132C180.155,106.219 179.395,105.306 178.634,104.394C177.655,103.35 176.675,102.306 175.695,101.263L172.91,98.107C169.076,94.513 169.418,94.269 165.829,92.117C164.786,91.441 163.742,90.765 162.699,90.09C159.106,88 159.188,88.105 155.377,86.643L153.578,85.406C147.76,82.686 147.922,82.828 147.436,82.592Z" style="fill:rgb(104,154,43);"/>
        <path d="M146.709,90.243C150.07,98.369 150.828,109.363 151.473,100.474C151.818,95.722 150.416,90.171 152.512,94.488C152.619,94.709 156.134,111.876 156.58,104.53C156.616,103.943 155.052,87.324 158.131,96.694C160.201,102.992 156.69,109.327 161.888,105.411C161.833,108.051 161.778,110.691 161.723,113.331C157.623,113.666 157.772,114.495 147.467,113.504C145.126,99.998 145.805,99.841 139.627,87.466C132.95,74.091 144.401,91.603 144.701,92.061C145.805,93.75 145.333,91.489 146.709,90.243Z" style="fill:rgb(246,112,63);"/>
        <path d="M135.942,78.822C141.123,79.514 141.295,81.651 145.923,79.007C165.327,83.585 167.059,87.079 177.042,94.992C189.843,109.207 188.637,109.93 193.161,121.593C193.499,123.456 196.965,133.782 194.99,147.585C194.649,146.995 193.599,147.09 193.259,146.5C191.667,143.744 201.97,106.562 156.555,84.322C149.243,80.741 149.051,81.659 147.436,82.592C146.792,83.08 146.148,83.568 145.504,84.055C144.718,84.359 143.933,84.662 143.148,84.966C139.756,82.041 139.134,83.149 135.638,80.205C135.277,79.901 136.303,79.126 135.942,78.822Z" style="fill:rgb(42,95,30);"/>
        <path d="M186.249,70.659C186.841,70.387 186.909,69.431 187.5,69.159C187.846,69 193.426,75.259 193.898,71.618C194.669,65.671 195.378,76.107 201.311,76.128C202.334,75.305 203.357,74.481 204.381,73.658C210.659,77.994 210.296,78.265 213.857,81.115C211.388,83.853 211.432,84.112 212.661,87.499C214.931,95.769 214.973,95.703 215.113,96.431C217.005,106.326 212.979,94.577 208.003,83.747C207.823,83.355 207.514,83.031 207.334,82.639C205.695,79.632 205.612,79.801 205.493,79.539C205.209,79.791 204.758,78.776 204.474,79.028C204.193,79.277 203.594,79.809 205.83,83.518C205.937,83.842 212.103,105.644 205.141,87.726C200.96,76.965 198.857,77.665 198.528,78.511C198.497,78.591 203.089,88.43 203.216,91.474C203.654,101.971 199.289,78.899 190.531,73.834C188.098,72.39 188.291,72.46 186.249,70.659Z" style="fill:rgb(50,91,39);"/>
        <path d="M92.542,34.374C91.7,35.147 92.162,37.362 85.421,35.812C78.865,37.641 78.001,36.241 67.586,46.593C65.013,49.151 65.17,49.302 64.5,49.286C61.03,49.201 69.015,42.037 69.566,41.542C105.556,9.249 61.169,46.955 60.511,47.52C31.524,72.407 68.273,37.218 69.082,36.443C69.465,35.535 70.662,35.1 69.543,35.353C69.006,35.473 69.14,35.565 68.502,35.709C61.8,38.274 52.389,48.473 51.541,48.145C50.495,47.741 49.132,45.749 60.767,37.587C62.011,36.633 61.673,36.553 62.324,35.306C75.424,30.036 88.093,33.329 92.542,34.374Z" style="fill:rgb(47,106,35);"/>
        <path d="M212.521,30.922C209.978,30.39 199.824,27.547 185.435,32.253C176.893,34.947 177.164,35.122 169.254,39.179C159.846,46.258 159.651,45.869 151.493,54.496C150.261,56.288 150.307,56.186 149.311,58.111C145.631,62.524 146.103,62.644 143.162,67.411C141.126,70.711 139.976,71.036 139.488,71.396C139.111,71.091 138.734,70.786 138.357,70.481C138.611,70 139.431,68.448 141.807,64.616C148.955,53.25 166.074,28.944 197.5,27.516C212.656,26.827 211.656,30.308 212.521,30.922Z" style="fill:rgb(127,171,49);"/>
        <path d="M92.542,34.374C93.897,34.974 95.251,35.573 96.606,36.172C101.793,38.521 101.722,38.372 106.54,41.441C103.734,42.866 103.892,42.859 103.547,42.854C93.254,34.554 64.428,63.088 75.967,49.703C81.588,43.183 90.483,37.531 82.55,40.906C80.464,41.793 58.343,60.632 72.867,44.772C80.837,36.068 85.696,40.145 85.421,35.812C92.162,37.362 91.7,35.147 92.542,34.374Z" style="fill:rgb(50,108,36);"/>
        <path d="M503.949,156.431C504.594,147.855 507.62,144.651 511.155,137.318C511.312,136.991 513.964,131.491 514.649,134.423C520.81,160.792 506.52,163.926 503.949,156.431Z" style="fill:rgb(253,252,251);"/>
        <path d="M92.542,34.374C88.093,33.329 75.424,30.036 62.324,35.306C60.757,35.803 60.889,35.819 59.488,36.694L58.638,36.91C58.038,32.018 60.68,33.794 65.423,32.186C95.61,21.952 122.917,46.745 128.838,67.476C127.528,67.04 127.262,67.814 126.361,66.651C126.361,66.651 124.993,65.382 124.874,65.272L124.093,64.673C124.244,62.817 124.635,62.866 123.944,61.168L122.776,59.253C122.158,58.216 121.54,57.179 120.922,56.143C114.019,48.312 114.518,47.975 106.54,41.441C101.722,38.372 101.793,38.521 96.606,36.172C95.251,35.573 93.897,34.974 92.542,34.374Z" style="fill:rgb(131,173,48);"/>
        <path d="M76.823,73.872C75.73,75.093 74.638,76.314 73.545,77.535C69.856,75.921 70.367,78.02 68.247,81.466C66.491,84.801 67.575,85.479 66.647,85.5C66.079,85.513 65.86,84.455 65.292,84.467C65.369,83.803 65.445,83.139 65.522,82.474C65.137,82.418 64.751,82.362 64.365,82.307C63.529,84.332 63.604,84.226 63.438,86.439C63.359,87.592 62.789,95.913 59.125,100.225C55.832,104.1 59.567,87.513 59.548,87.48C57.684,84.164 55.051,96.968 53.771,100.603C45.895,122.986 51.615,95.867 51.72,95.435C51.589,95.176 51.458,94.918 51.327,94.66C49.102,93.271 50.049,92.724 51.547,90.535C53.151,88.743 68.489,71.605 75.421,72.262C76.129,72.329 76.114,73.805 76.823,73.872Z" style="fill:rgb(47,109,39);"/>
        <path d="M185.435,32.253C186.432,32.814 187.429,33.374 188.426,33.934C197.124,35.946 197.815,35.152 197.42,34.548C197.019,33.935 195.747,34.432 195.345,33.818C196.02,33.653 195.849,32.266 196.523,32.101C196.611,32.079 200.093,34.671 201.958,32.672C204.766,29.664 208.462,34.581 208.521,34.62C207.673,35.668 208.085,35.732 209.336,36.527C209.977,36.911 223.722,45.141 215.494,43.542C214.975,43.441 199.602,32.063 201.666,36.451C202.021,37.205 215.855,45.908 210.514,45.747C209.417,45.714 203.143,39.554 197.435,38.337C194.005,37.165 194.066,37.55 190.431,36.585C188.781,36.27 187.131,35.954 185.481,35.639C183.265,36.862 183.418,36.821 181.571,38.522C178.826,38.527 179.744,39.649 179.849,40.162L179.5,41.499C174.242,40.708 174.264,41.084 169.254,39.179C177.164,35.122 176.893,34.947 185.435,32.253Z" style="fill:rgb(43,103,33);"/>
        <path d="M946.91,133.844C952.123,135.618 952.886,158.705 943.443,160.089C932.168,161.74 944.607,138.852 946.91,133.844Z" style="fill:rgb(252,251,250);"/>
        <path d="M165.829,92.117C169.418,94.269 169.076,94.513 172.91,98.107C172.167,99.535 171.424,100.963 170.68,102.39C163.35,102.704 170.729,106.608 171.708,107.05C172.343,107.46 172.978,107.87 173.612,108.281C176.845,116.308 174.922,106.678 174.874,106.511C173.865,102.252 175.265,102.454 175.695,101.263C176.675,102.306 177.655,103.35 178.634,104.394C178.57,104.965 177.376,104.929 177.312,105.5C177.229,106.24 177.534,106.082 177.637,114.808C176.465,117.305 169.822,146.052 173.106,123.53C174.144,116.409 173.523,116.054 173.428,114.579C173.179,114.682 172.929,114.785 172.679,114.888C171.153,121.424 171.006,121.506 170.5,121.787C169.462,122.364 170.213,121.325 169.659,120.434L170.546,113.49C166.479,114.442 168.36,116.061 167.445,120.144C163.956,118.428 170.321,102.864 164.571,98.688C166.886,96.914 164.403,96.429 164.63,93.466C164.676,92.866 165.783,92.717 165.829,92.117Z" style="fill:rgb(56,101,36);"/>
        <path d="M169.144,69.947C166.613,69.012 166.467,69.025 164.439,70.887C163.764,71.085 163.179,69.849 162.504,70.047C162.306,70.105 160.479,70.641 163.511,72.419C162.967,72.552 163.244,74.334 160.705,73.104C156.649,71.138 156.677,71.072 156.5,71.176C154.381,72.426 159.512,75.233 159.5,75.378C159.445,76.034 158.336,76.275 158.281,76.931L155.53,75.832C152.836,75.059 148.306,74.301 147.672,74.195C143.116,72.834 148.245,72.263 149.585,71.633C174.94,59.718 196.89,69.6 200.613,71.276C200.049,73.769 200.148,73.707 201.311,76.128C195.378,76.107 194.669,65.671 193.898,71.618C193.426,75.259 187.846,69 187.5,69.159C186.909,69.431 186.841,70.387 186.249,70.659C185.037,69.732 185.344,69.589 184.062,68.608C183.88,68.469 183.864,68.684 181.396,69.638C179.8,68.707 180.027,68.662 178.5,67.949C176.323,66.932 177.784,68.811 179.217,70.632C174.929,72.999 175.954,68.135 173.613,68.212C172.905,68.236 172.858,69.729 172.151,69.753C171.148,69.818 170.146,69.882 169.144,69.947Z" style="fill:rgb(54,113,32);"/>
        <path d="M65.918,133.807C50.239,156.428 47.838,159.521 36.661,188.56C36.524,188.328 34.945,185.65 34.945,185.65C35.166,184.768 37.504,175.456 37.898,174.68C45.913,158.906 46.033,158.985 46.669,157.586C49.308,151.789 50.711,152.638 52.943,146.684C54.103,143.589 57.198,141.719 57.396,141.434C62.741,133.721 62.248,133.342 64.5,132.462C65.107,132.225 65.311,134.044 65.918,133.807Z" style="fill:rgb(252,116,72);"/>
        <path d="M90.491,68.637C82.919,69.849 82.093,68.367 76.823,73.872C76.114,73.805 76.129,72.329 75.421,72.262C68.489,71.605 53.151,88.743 51.547,90.535C49.945,81.18 88.527,51.513 124.777,74.176C124.276,74.317 124.676,76.206 122.567,74.798C122.346,74.651 120.681,73.539 119.503,73.552C119.174,73.555 118.876,73.795 118.546,73.799C116.231,69.781 101.966,68.977 100.47,68.893C95.475,68.712 95.642,68.689 90.491,68.637Z" style="fill:rgb(128,174,47);"/>
        <path d="M304.879,254.524C298.32,247.71 294.518,238.943 274.687,246.933C267.12,249.982 267.534,253.127 250.631,261.806C242.352,266.057 242.045,264.498 241.291,264.023C242.564,263.446 252.43,258.975 256.685,255.765C259.764,253.443 299.489,223.476 304.879,254.524Z" style="fill:rgb(128,225,244);"/>
        <path d="M185.836,115.211C186.686,117.314 187.536,119.416 188.385,121.518C189.972,128.62 193.588,136.308 189.774,141.849C189.645,142.289 179.594,171.626 186.399,146.49C189.036,136.75 188.345,136.388 188.502,134.499C186.868,136.033 179.134,154.737 182.787,142.519C182.91,142.107 190.442,114.403 182.105,137.192C181.993,137.498 172.809,156.705 178.769,139.533C181.164,132.634 181.159,132.766 182.498,125.5C184.986,121.777 186.339,121.755 184.575,117.687L185.836,115.211Z" style="fill:rgb(57,101,32);"/>
        <path d="M169.144,69.947C169.418,70.145 173.845,73.336 173.312,70.632C173.219,70.155 172.244,70.229 172.151,69.753C172.858,69.729 172.905,68.236 173.613,68.212C175.954,68.135 174.929,72.999 179.217,70.632C180.937,71.812 182.658,72.991 184.378,74.17C184.224,76.879 193.59,87.542 189.629,87.035C187.586,86.774 183.953,74.026 176.372,73.317L174.586,75.252C173.588,74.736 172.589,74.22 171.591,73.704C172.552,75.857 172.659,75.578 174.263,77.596C186.511,92.991 168.341,74.236 167.429,73.754C162.965,71.398 170.769,79.346 170.651,80.69C170.6,81.283 170.059,81.39 164.499,76.506C163.712,77.383 164.035,77.434 164.649,78.512C166.948,83.09 162.808,79.865 158.281,76.931C158.336,76.275 159.445,76.034 159.5,75.378C159.512,75.233 154.381,72.426 156.5,71.176C156.677,71.072 156.649,71.138 160.705,73.104C163.244,74.334 162.967,72.552 163.511,72.419C164.652,71.855 165.337,71.913 164.439,70.887C166.467,69.025 166.613,69.012 169.144,69.947Z" style="fill:rgb(48,84,34);"/>
        <path d="M558.52,95.087C575.268,99.732 555.098,118.282 549.848,106.352C546.056,97.733 557.408,95.323 558.52,95.087Z" style="fill:rgb(190,42,34);"/>
        <path d="M60.23,270.146C60.892,270.137 60.903,271.626 61.565,271.617C62.849,271.6 62.233,270.679 63.378,270.337C64.091,270.125 80.012,257.392 89.472,273.694C59.652,273.451 55.521,275.313 57.694,271.729L60.23,270.146Z" style="fill:rgb(6,198,234);"/>
        <path d="M926.972,103.512C927.287,102.402 930.481,91.15 939.238,95.941C950.64,102.177 929.554,120.04 926.972,103.512Z" style="fill:rgb(192,46,36);"/>
        <path d="M137.863,88.186C154.396,122.673 140.014,142.453 133.677,153.574C133.474,153.931 125.162,168.517 129.444,156.464C130.227,154.262 136.653,149.134 141.168,132.396C142.916,120.964 142.621,121.024 142.194,109.504C141.011,101.728 141.071,101.881 138.554,94.471C137.759,93.029 137.948,93.081 137.093,91.54C137.349,90.422 137.606,89.304 137.863,88.186Z" style="fill:rgb(129,180,47);"/>
        <path d="M106.54,41.441C114.518,47.975 114.019,48.312 120.922,56.143C120.115,56.469 119.307,56.795 118.5,57.121C118.5,53.466 116.399,54.284 108.55,52.57C107.566,52.126 106.583,51.683 105.599,51.239C106.853,50.095 108.743,50.835 107.49,49.514C106.67,48.648 106.318,49.346 105.561,48.548C104.103,46.726 103.866,47.393 101.531,47.632C99.004,46.092 100.731,45.367 100.542,45.29C99.588,44.897 98.414,45.981 97.459,45.588C90.827,47.201 91.138,47.678 85.484,51.464C77.028,57.353 84.808,48.844 84.982,48.702C92.816,42.301 93.439,43.674 103.547,42.854C103.892,42.859 103.734,42.866 106.54,41.441Z" style="fill:rgb(50,109,35);"/>
        <path d="M8.62,215.497C11.206,216.212 14.746,219.513 27.241,222.443C26.663,225.463 26.085,228.483 25.507,231.504C24.31,231.32 18.872,230.486 11.824,225.048C6.208,220.714 8.414,217.88 8.62,215.497Z" style="fill:rgb(5,200,236);"/>
        <path d="M190.477,220.491C199.22,229.288 202.611,227.914 204.511,230.589C202.329,231.048 185.596,234.573 176.638,230.347C175.215,229.675 179.296,228.67 179.56,228.605C186.439,226.91 185.669,225.604 190.477,220.491Z" style="fill:rgb(2,194,229);"/>
        <path d="M173.302,199.161C175.014,200.498 183.349,203.287 179.718,212.598C177.336,218.702 164.768,220.961 158.66,218.188C154.638,216.362 154.374,217.338 150.5,215.095C148.175,213.748 147.965,215.426 147.509,215.486C134.812,208.571 134.03,208.632 134.546,207.53C135.767,204.926 177.248,228.747 178.475,208.499C178.491,208.244 178.085,199.708 169.692,202.939C171.004,200.649 171.299,201.043 173.302,199.161Z" style="fill:rgb(79,210,238);"/>
        <path d="M436.323,138.15C428.659,140.88 432.591,135.291 433.705,132.589C439.678,118.103 447.72,118.604 446.789,125.558C445.912,132.112 437.431,137.452 436.323,138.15Z" style="fill:rgb(253,252,252);"/>
        <path d="M148.159,85.813C151.858,88.865 151.404,91.435 152.449,91.606C155.25,92.065 152.596,90.313 152.492,87.502C152.463,86.716 153.607,86.192 153.578,85.406L155.377,86.643C155.616,92.249 159.416,90.245 161.255,95.47C161.696,96.723 161.719,96.561 162.194,97.679C162.479,99.496 162.169,99.506 160.442,99.804C160.828,100.348 161.215,100.893 161.601,101.437L161.864,103.418L161.888,105.411C156.69,109.327 160.201,102.992 158.131,96.694C155.052,87.324 156.616,103.943 156.58,104.53C156.134,111.876 152.619,94.709 152.512,94.488C150.416,90.171 151.818,95.722 151.473,100.474C150.828,109.363 150.07,98.369 146.709,90.243L146.191,88.81C146.608,86.871 146.765,87.113 148.159,85.813Z" style="fill:rgb(55,92,35);"/>
        <path d="M627.295,135.246C609.025,148.113 624.856,122.928 628.722,120.903C633.981,118.149 634.008,123.025 634.011,123.496C634.036,127.934 628.029,134.45 627.295,135.246Z" style="fill:rgb(253,252,252);"/>
        <path d="M988.626,137.725C979.741,141.289 985.352,132.872 985.852,131.639C991.074,118.773 1000.407,117.289 998.603,125.529C997.209,131.898 989.669,137.017 988.626,137.725Z" style="fill:rgb(252,251,251);"/>
        <path d="M127.878,17.094C127.567,16.824 112.664,3.869 125.488,12.532C149.931,29.046 138.268,62.348 136.809,66.512L135.883,66.274C135.362,65.763 134.842,65.252 134.321,64.741C135.681,63.431 135.567,63.352 135.16,61.546C136.381,60.015 137.616,60.531 137.568,56.474C138.772,53.145 138.613,53.199 138.279,49.566C138.854,45.918 138.675,46.089 138.033,42.585L137.035,41.662C137.305,41.017 138.889,41.568 138.353,38.508C138.153,37.363 137.992,37.611 137.785,36.425C137.231,32.868 137.265,32.885 137.186,32.584C136.734,30.848 136.349,31.086 135.898,29.356C132.873,22.584 132.654,22.794 127.878,17.094Z" style="fill:rgb(123,168,47);"/>
        <path d="M173.302,199.161C171.299,201.043 171.004,200.649 169.692,202.939C161.425,209.427 172.475,189.596 184.336,197.782C191.921,203.018 190.285,213.935 190.065,215.401C185.44,224.181 182.868,224.501 175.563,226.889C177.082,224.238 177.589,224.984 180.139,223.211C194.45,213.263 186.31,194.769 173.302,199.161Z" style="fill:rgb(125,222,246);"/>
        <path d="M132.455,34.65C130.434,36.355 135.432,40.003 137.035,41.662L138.033,42.585C137.264,42.902 137.276,44.241 136.508,44.558C135.684,44.898 129.127,34.232 126.449,39.539C121.189,34.795 113.521,31.302 120.519,32.66C124.989,33.527 130.019,35.477 126.292,32.692C126.17,32.6 112.775,25.817 117.686,25.977C118.576,26.006 118.42,26.667 128.55,28.38C129.516,28.544 130.441,28.7 137.785,36.425C135.803,37.184 135.653,37.314 132.455,34.65Z" style="fill:rgb(41,101,37);"/>
        <path d="M105.443,237.693C107.361,237.129 111.087,235.521 124.432,241.753C138.175,247.893 141.702,255.62 154.686,259.145C156.094,259.527 157.374,258.26 159.479,261.72C158.006,261.496 147.504,259.899 141.682,256.233C124.332,245.307 125.133,243.68 105.443,237.693Z" style="fill:rgb(122,217,244);"/>
        <path d="M179.849,40.162C180.039,40.359 181.223,41.584 182.239,42.604C183.973,43.238 185.707,43.872 187.441,44.506C193.148,49.481 192.287,50.606 191.552,50.693C190.464,50.822 180.902,42.897 181.282,46.519C181.337,47.039 189.355,52.518 185.531,52.688C185.364,52.695 177.573,47.766 164.356,46.086C164.455,46.06 165.59,45.756 165.59,45.756C167.344,44.355 167.546,45.01 169.544,44.247C169.298,37.449 179.419,48.263 179.5,41.499L179.849,40.162Z" style="fill:rgb(40,103,37);"/>
        <path d="M212.521,30.922L213.537,31.8C211.517,35.386 227.957,38.733 223.508,41.518C222.534,42.128 222.517,41.479 210.505,35.403C209.844,35.142 209.182,34.881 208.521,34.62C208.462,34.581 204.766,29.664 201.958,32.672C200.093,34.671 196.611,32.079 196.523,32.101C195.849,32.266 196.02,33.653 195.345,33.818C192.274,33.149 192.036,31.461 188.426,33.934C187.429,33.374 186.432,32.814 185.435,32.253C199.824,27.547 209.978,30.39 212.521,30.922Z" style="fill:rgb(47,108,36);"/>
        <path d="M190.431,36.585C194.066,37.55 194.005,37.165 197.435,38.337C198.235,41.201 212.647,51.186 203.512,46.447C198.353,43.771 198.769,43.242 193.475,40.586C183.717,35.692 195.819,44.547 196.14,44.782C223.722,64.965 189.022,43.824 188.502,43.487C184.908,41.104 184.34,40.858 182.239,42.604C181.223,41.584 180.039,40.359 179.849,40.162C179.744,39.649 178.826,38.527 181.571,38.522C183.506,39.299 183.497,39.287 185.385,38.427L186.586,37.821C189.233,38.333 190.554,39.308 190.431,36.585Z" style="fill:rgb(39,103,36);"/>
        <path d="M718.485,200.956C719.343,201.205 728.212,203.783 723.003,211.169C720.755,214.356 715.332,214.385 715.256,212.566C714.945,205.111 711.022,201.495 718.485,200.956Z" style="fill:rgb(254,253,253);"/>
        <path d="M520.528,201.072C521.392,201.291 530.881,203.704 525.119,211.229C520.867,216.781 517.61,214.382 517.539,207.5C517.495,203.18 516.185,201.498 520.528,201.072Z" style="fill:rgb(253,253,252);"/>
        <path d="M213.857,81.115C216.832,84.27 216.731,84.079 219.616,87.397C220.401,87.733 221.185,88.069 221.969,88.405C224.756,91.155 225.32,91.674 223.039,94.78C215.81,84.72 222.429,100.754 221.501,101.501C219.886,102.804 215.233,88.553 214.282,86.694C213.624,86.888 213.743,86.897 212.661,87.499C211.432,84.112 211.388,83.853 213.857,81.115Z" style="fill:rgb(53,93,42);"/>
        <path d="M126.449,39.539C129.127,34.232 135.684,44.898 136.508,44.558C137.276,44.241 137.264,42.902 138.033,42.585C138.675,46.089 138.854,45.918 138.279,49.566C138.613,53.199 138.772,53.145 137.568,56.474C136.385,55.595 136.455,55.665 135.49,54.504C137.807,49.801 133.446,48.348 126.475,41.41C126.466,40.786 126.458,40.163 126.449,39.539Z" style="fill:rgb(59,115,42);"/>
        <path d="M60.23,270.146C62.272,268.723 83.44,253.97 91.307,271.565C92.124,273.39 91.379,273.363 89.472,273.694C80.012,257.392 64.091,270.125 63.378,270.337C62.233,270.679 62.849,271.6 61.565,271.617C60.903,271.626 60.892,270.137 60.23,270.146Z" style="fill:rgb(122,223,243);"/>
        <path d="M95.828,71.621C95.026,72.201 94.224,72.782 93.422,73.363L91.512,74.52C87.268,79.68 88.787,81.584 82.45,83.466C86.019,78.335 82.749,78.217 82.462,78.493C82.462,78.493 78.217,85.931 77.847,86.578C76.952,87.837 77.122,87.722 75.927,88.882C74.839,90.229 75.549,91.09 72.669,91.738C75.815,81.033 83.106,76.086 84.452,75.172C85.161,75.05 85.135,76.944 85.844,76.821C88.699,76.328 89.785,69.068 95.828,71.621Z" style="fill:rgb(75,125,67);"/>
        <path d="M25.043,234.513C24.002,244.444 23.648,246.455 23.467,247.485C19.196,238.25 18.909,238.526 12.925,230.403C9.457,225.695 14.692,231.536 25.043,234.513Z" style="fill:rgb(22,186,226);"/>
        <path d="M192.358,217.753C203.315,232.099 208.597,225.53 213.505,225.19C224.863,224.402 205.314,230.345 204.511,230.589C202.611,227.914 199.22,229.288 190.477,220.491C191.104,219.578 191.731,218.665 192.358,217.753Z" style="fill:rgb(109,216,243);"/>
        <path d="M178.288,115.783C178.626,115.627 180.341,114.836 182.935,115.591C183.252,116.531 183.161,116.454 183.561,117.443C183.783,117.993 183.953,117.538 184.575,117.687C186.339,121.755 184.986,121.777 182.498,125.5C182.489,125.076 180.192,96.315 180.68,120.516C180.889,130.885 175.445,140.366 176.217,134.559C177.467,125.155 178.033,125.398 178.288,115.783Z" style="fill:rgb(66,106,40);"/>
        <path d="M49.554,233.523C49.981,233.369 60.373,229.422 59.357,231.446C57.322,235.498 55.25,234.177 51.082,244.246C51.078,244.257 51.084,244.247 48.764,247.459C48.873,244.697 48.36,241.279 49.554,233.523Z" style="fill:rgb(8,184,223);"/>
        <path d="M8.62,215.497C8.653,215.133 7.505,209.847 11.427,212.61C18.812,217.812 25.995,218.461 27.35,218.583C27.687,220.656 27.566,220.475 27.241,222.443C14.746,219.513 11.206,216.212 8.62,215.497Z" style="fill:rgb(131,223,247);"/>
        <path d="M181.396,69.638C184.163,71.537 186.93,73.436 189.698,75.335C196.845,81.864 198.992,94.9 194.096,85.976C189.463,77.533 185.399,74.845 184.378,74.17C182.658,72.991 180.937,71.812 179.217,70.632C177.784,68.811 176.323,66.932 178.5,67.949C180.027,68.662 179.8,68.707 181.396,69.638Z" style="fill:rgb(36,79,39);"/>
        <path d="M108.55,52.57C116.399,54.284 118.5,53.466 118.5,57.121C114.249,56.207 114.353,56.241 110.336,54.81C107.857,54.825 107.955,54.584 105.474,55.21L101.484,56.361C92.92,58.704 92.943,56.01 93.274,55.438C93.752,54.612 94.779,54.198 95.257,53.372C95.878,53.399 95.879,54.734 96.5,54.762C97.285,54.797 97.736,53.695 98.501,53.516C99.485,53.286 99.075,54.229 100.193,54.364C104.378,53.244 104.164,52.783 108.55,52.57Z" style="fill:rgb(59,117,61);"/>
        <path d="M86.647,73.623C85.915,74.14 85.184,74.656 84.452,75.172C83.106,76.086 75.815,81.033 72.669,91.738C71.825,91.972 70.98,92.205 70.136,92.439C70.227,91.923 69.111,90.527 74.721,81.515C77.309,79.171 77.193,79.279 79.433,76.417C79.807,76.143 79.701,76.165 83.978,72.82C85.068,71.968 85.119,71.983 85.233,72.017C86.454,72.385 85.509,73.281 86.647,73.623Z" style="fill:rgb(35,97,32);"/>
        <path d="M162.699,90.09C163.742,90.765 164.786,91.441 165.829,92.117C165.783,92.717 164.676,92.866 164.63,93.466C164.403,96.429 166.886,96.914 164.571,98.688C162.747,101.598 166.966,113.631 161.723,113.331C161.778,110.691 161.833,108.051 161.888,105.411L161.864,103.418C162.019,101.757 162.009,101.89 161.614,100.145L160.442,99.804C162.169,99.506 162.479,99.496 162.194,97.679C162.278,97.063 163.517,97.071 163.6,96.455C163.704,95.69 162.912,95.07 162.647,94.345C161.057,90.003 162.654,90.273 162.699,90.09Z" style="fill:rgb(52,95,42);"/>
        <path d="M649.88,214.417C650.751,220.147 642.385,217.979 643.123,215.433C643.6,213.783 646.772,202.91 647.731,206.296C647.914,206.942 647.89,206.897 649.88,214.417Z" style="fill:rgb(253,252,252);"/>
        <path d="M750.89,213.637C752.793,207.228 752.756,207.26 752.946,206.715C754.15,203.259 757.13,214.772 757.327,215.534C757.882,217.679 749.323,220.854 750.89,213.637Z" style="fill:rgb(250,247,246);"/>
        <path d="M127.878,17.094C132.654,22.794 132.873,22.584 135.898,29.356C135.304,29.468 135.122,30.432 134.528,30.543C134.086,30.626 134.085,30.433 130.336,26.801C129.781,25.524 132.402,26.477 131.839,25.182C131.726,24.922 131.567,25.141 128.824,23.323C124.519,20.47 127.709,17.682 127.878,17.094Z" style="fill:rgb(53,108,30);"/>
        <path d="M126.475,41.41C133.446,48.348 137.807,49.801 135.49,54.504L134.765,53.384C130.444,47.131 129.601,43.862 127.562,47.5L126.948,46.463C125.019,44.116 125.013,44.362 122.65,42.345C117.346,37.819 126.182,41.295 126.475,41.41Z" style="fill:rgb(58,119,45);"/>
        <path d="M93.422,73.363C94.156,73.613 94.889,73.863 95.622,74.113C94.846,76.518 95.246,76.617 93.473,78.443C92.631,79.975 92.574,79.797 92.487,81.652C91.827,81.856 91.168,82.059 90.509,82.262C89.059,84.152 89.146,84.05 88.198,86.165C88.014,86.501 83.309,95.066 84.675,89.412C85.729,85.05 86.082,84.636 86.361,84.309C93.035,77.072 92.244,76.327 91.512,74.52L93.422,73.363Z" style="fill:rgb(67,92,40);"/>
        <path d="M110.336,54.81C114.353,56.241 114.249,56.207 118.5,57.121C119.307,56.795 120.115,56.469 120.922,56.143C121.54,57.179 122.158,58.216 122.776,59.253C121.39,59.199 120.004,59.146 118.619,59.092C114.161,58.339 111.168,59.303 110.282,59.355C109.687,59.071 109.093,58.787 108.499,58.504C106.628,58.681 106.831,58.419 105.277,57.341C108.505,56.577 110.127,58.181 110.336,54.81Z" style="fill:rgb(52,114,40);"/>
        <path d="M74.721,81.515C69.111,90.527 70.227,91.923 70.136,92.439C67.48,98.111 65.818,95.96 65.869,95.541C67.196,84.599 73.493,82.018 74.721,81.515Z" style="fill:rgb(222,230,221);"/>
        <path d="M133.762,81.236C135.911,84.766 135.879,84.614 137.863,88.186C137.606,89.304 137.349,90.422 137.093,91.54C134.655,95.199 134.709,95.196 134.471,95.491C129.64,92.608 135.415,90.772 133.541,85.5C132.779,83.358 133.205,83.397 133.762,81.236Z" style="fill:rgb(63,125,40);"/>
        <path d="M90.491,68.637C95.642,68.689 95.475,68.712 100.47,68.893C99.914,69.83 99.358,70.768 98.802,71.706C98.791,71.7 97.797,69.503 95.828,71.621C89.785,69.068 88.699,76.328 85.844,76.821C85.135,76.944 85.161,75.05 84.452,75.172C85.184,74.656 85.915,74.14 86.647,73.623C87.928,71.961 89.21,70.299 90.491,68.637Z" style="fill:rgb(76,132,35);"/>
        <path d="M133.261,97.419C133.394,97.465 133.946,99.473 136.139,97.13C136.456,98.162 136.772,99.194 137.088,100.227L136.397,100.365C135.427,101.053 134.458,101.741 133.488,102.429C132.132,103.981 125.028,112.396 125.435,108.496C125.5,107.871 128.936,104.616 130.054,103.249C131.567,101.401 132.87,100.76 130.565,99.728L133.261,97.419Z" style="fill:rgb(64,91,38);"/>
        <path d="M136.397,100.365C135.963,104.606 133.195,104.655 135.369,108.103L133.419,110.49C129.961,111.328 123.313,116.863 126.859,112.654C130.958,107.786 131.839,108.4 133.488,102.429C134.458,101.741 135.427,101.053 136.397,100.365Z" style="fill:rgb(65,101,42);"/>
        <path d="M97.459,45.588C98.414,45.981 99.588,44.897 100.542,45.29C100.731,45.367 99.004,46.092 101.531,47.632C89.985,53.522 88.749,53.488 87.537,53.455C90.717,47.646 94.005,51.169 97.459,45.588Z" style="fill:rgb(39,100,43);"/>
        <path d="M155.377,86.643C159.188,88.105 159.106,88 162.699,90.09C162.654,90.273 161.057,90.003 162.647,94.345C162.912,95.07 163.704,95.69 163.6,96.455C163.517,97.071 162.278,97.063 162.194,97.679C161.719,96.561 161.696,96.723 161.255,95.47C159.416,90.245 155.616,92.249 155.377,86.643Z" style="fill:rgb(64,127,37);"/>
        <path d="M163.56,61.729C152.661,65.168 152.473,65.266 151.579,65.737C150.523,66.291 149.671,67.34 148.499,67.555C148.015,67.643 147.965,66.398 147.481,66.486C148.51,65.626 157.628,58.005 163.56,61.729Z" style="fill:rgb(160,182,155);"/>
        <path d="M172.91,98.107L175.695,101.263C175.265,102.454 173.865,102.252 174.874,106.511C174.453,107.101 174.033,107.691 173.612,108.281C172.978,107.87 172.343,107.46 171.708,107.05C171.308,105.286 171.465,105.4 171.096,103.777C171.07,103.664 171.096,103.777 170.68,102.39C171.424,100.963 172.167,99.535 172.91,98.107Z" style="fill:rgb(63,123,44);"/>
        <path d="M91.512,74.52C92.244,76.327 93.035,77.072 86.361,84.309C83.945,84.666 84.393,85.315 82.675,86.702C82.611,86.558 80.728,86.246 82.45,83.466C88.787,81.584 87.268,79.68 91.512,74.52Z" style="fill:rgb(131,160,118);"/>
        <path d="M147.436,82.592C147.922,82.828 147.76,82.686 153.578,85.406C153.607,86.192 152.463,86.716 152.492,87.502C152.596,90.313 155.25,92.065 152.449,91.606C151.404,91.435 151.858,88.865 148.159,85.813C146.858,84.858 146.893,85.112 145.504,84.055C146.148,83.568 146.792,83.08 147.436,82.592Z" style="fill:rgb(58,123,32);"/>
        <path d="M176.372,73.317C179.385,77.529 179.955,76.996 182.415,81.534C188.705,93.142 176.179,77.085 174.586,75.252L176.372,73.317Z" style="fill:rgb(49,75,52);"/>
        <path d="M178.634,104.394C179.395,105.306 180.155,106.219 180.916,107.132C180.523,108.856 179.876,108.661 180.156,110.466C180.464,112.45 180.254,112.46 180.308,112.624C181.183,115.274 182.521,114.273 182.913,114.564L182.935,115.591C180.341,114.836 178.626,115.627 178.288,115.783L177.637,114.808C177.534,106.082 177.229,106.24 177.312,105.5C177.376,104.929 178.57,104.965 178.634,104.394Z" style="fill:rgb(66,123,37);"/>
        <path d="M105.561,48.548C106.318,49.346 106.67,48.648 107.49,49.514C108.743,50.835 106.853,50.095 105.599,51.239C101.988,51.803 100.772,50.793 100.193,54.364C99.075,54.229 99.485,53.286 98.501,53.516C97.736,53.695 97.285,54.797 96.5,54.762C95.879,54.734 95.878,53.399 95.257,53.372C95.997,52.842 99.199,50.548 105.561,48.548Z" style="fill:rgb(48,106,51);"/>
        <path d="M134.765,53.384L135.49,54.504C136.455,55.665 136.385,55.595 137.568,56.474C137.616,60.531 136.381,60.015 135.16,61.546L131.809,54.517C133.435,54.557 132.964,53.526 134.765,53.384Z" style="fill:rgb(47,107,31);"/>
        <path d="M124.874,65.272C124.993,65.382 126.361,66.651 126.361,66.651C127.262,67.814 127.528,67.04 128.838,67.476C128.993,68.016 131.231,75.823 129.52,74.469C128.982,74.043 129.762,73.315 123.588,68.29C122.724,67.587 123.395,67.491 124.874,65.272Z" style="fill:rgb(52,111,33);"/>
        <path d="M107.365,80.314C110.381,77.962 111.133,80.726 114.5,78.973C116.239,78.067 116.015,79.176 117.464,80.354C113.957,82.177 113.922,84.643 110.709,82.034C110.408,82.024 110.49,81.866 107.365,80.314Z" style="fill:rgb(114,128,68);"/>
        <path d="M97.459,45.588C94.005,51.169 90.717,47.646 87.537,53.455C86.853,52.791 86.168,52.128 85.484,51.464C91.138,47.678 90.827,47.201 97.459,45.588Z" style="fill:rgb(180,201,178);"/>
        <path d="M103.593,73.438L103.405,75.407C102.991,75.787 100.91,77.696 98.458,80.403C97.459,80.16 97.399,80.472 96.788,79.625C100.829,74.135 101.307,71.943 103.593,73.438Z" style="fill:rgb(158,180,150);"/>
        <path d="M132.455,34.65C135.653,37.314 135.803,37.184 137.785,36.425C137.992,37.611 138.153,37.363 138.353,38.508C138.889,41.568 137.305,41.017 137.035,41.662C135.432,40.003 130.434,36.355 132.455,34.65Z" style="fill:rgb(78,133,38);"/>
        <path d="M131.809,54.517L135.16,61.546C135.567,63.352 135.681,63.431 134.321,64.741C131.466,58.207 128.826,57.955 131.809,54.517Z" style="fill:rgb(35,93,28);"/>
        <path d="M59.048,236.088L61.293,236.242C57.468,240.267 58.327,240.729 55.106,245.274C54.29,246.425 53.954,245.811 53.452,244.48C56.081,240.05 55.772,240.058 59.048,236.088Z" style="fill:rgb(77,210,235);"/>
        <path d="M185.481,35.639C187.131,35.954 188.781,36.27 190.431,36.585C190.554,39.308 189.233,38.333 186.586,37.821C186.186,38.023 185.786,38.225 185.385,38.427C183.497,39.287 183.506,39.299 181.571,38.522C183.418,36.821 183.265,36.862 185.481,35.639Z" style="fill:rgb(75,129,54);"/>
        <path d="M180.916,107.132C181.826,108.577 182.736,110.022 183.646,111.467C183.135,113.099 183.399,113.026 182.913,114.564C182.521,114.273 181.183,115.274 180.308,112.624C180.254,112.46 180.464,112.45 180.156,110.466C179.876,108.661 180.523,108.856 180.916,107.132Z" style="fill:rgb(50,111,27);"/>
        <path d="M181.396,69.638C183.864,68.684 183.88,68.469 184.062,68.608C185.344,69.589 185.037,69.732 186.249,70.659C188.291,72.46 188.098,72.39 190.531,73.834C190.253,74.334 189.976,74.834 189.698,75.335C186.93,73.436 184.163,71.537 181.396,69.638Z" style="fill:rgb(72,121,37);"/>
        <path d="M135.883,66.274L136.809,66.512C136.663,66.998 132.888,79.558 132.824,71.444C133.877,66.757 134.441,67.108 135.883,66.274Z" style="fill:rgb(75,131,45);"/>
        <path d="M136.397,100.365L137.088,100.227L137.636,101.501C138.005,102.528 138.373,103.554 138.742,104.581C137.541,106.854 137.433,106.683 135.369,108.103C133.195,104.655 135.963,104.606 136.397,100.365Z" style="fill:rgb(79,133,60);"/>
        <path d="M188.426,33.934C192.036,31.461 192.274,33.149 195.345,33.818C195.747,34.432 197.019,33.935 197.42,34.548C197.815,35.152 197.124,35.946 188.426,33.934Z" style="fill:rgb(74,132,38);"/>
        <path d="M116.79,74.809C111.024,77.272 110.898,76.552 109.401,76.493L109.474,75.47C113.144,73.92 113.31,72.654 116.79,74.809Z" style="fill:rgb(79,136,47);"/>
        <path d="M124.984,154.991C125.546,155.817 126.107,156.644 126.668,157.47C126.12,157.695 120.405,160.039 119.706,160.011C117.564,159.925 124.499,155.314 124.984,154.991Z" style="fill:rgb(110,113,24);"/>
        <path d="M137.093,91.54C137.948,93.081 137.759,93.029 138.554,94.471C136.431,96.684 136.394,96.623 136.139,97.13C133.946,99.473 133.394,97.465 133.261,97.419L134.471,95.491C134.709,95.196 134.655,95.199 137.093,91.54Z" style="fill:rgb(79,134,57);"/>
        <path d="M94.499,80.499L95.561,80.633C93.16,83.588 93.694,83.757 91.685,86.85C91.38,85.263 91.034,85.456 91.086,83.736C91.114,82.838 90.482,83.148 90.509,82.262C91.168,82.059 91.827,81.856 92.487,81.652C93.157,81.268 93.828,80.883 94.499,80.499Z" style="fill:rgb(99,67,32);"/>
        <path d="M103.593,73.438C109.299,71.628 109.157,71.148 109.657,71.272C110.238,71.418 111.717,73.97 103.405,75.407L103.593,73.438Z" style="fill:rgb(76,127,64);"/>
        <path d="M126.948,46.463L127.562,47.5C128.768,49.185 129.164,48.981 129.091,50.453C129.077,50.735 128.921,50.612 126.053,50.778C124.264,48.376 124.062,47.473 126.948,46.463Z" style="fill:rgb(108,150,113);"/>
        <path d="M128.718,61.503C133.937,61.507 132.539,63.855 131.178,68.869C130.525,66.48 128.93,62.087 128.718,61.503Z" style="fill:rgb(81,128,76);"/>
        <path d="M105.599,51.239C106.583,51.683 107.566,52.126 108.55,52.57C104.164,52.783 104.378,53.244 100.193,54.364C100.772,50.793 101.988,51.803 105.599,51.239Z" style="fill:rgb(86,133,81);"/>
        <path d="M73.545,77.535C71.779,78.846 70.013,80.156 68.247,81.466C70.367,78.02 69.856,75.921 73.545,77.535Z" style="fill:rgb(108,154,85);"/>
        <path d="M170.546,113.49L169.659,120.434C168.921,120.338 168.183,120.241 167.445,120.144C168.36,116.061 166.479,114.442 170.546,113.49Z" style="fill:rgb(202,129,13);"/>
        <path d="M143.148,84.966C143.933,84.662 144.718,84.359 145.504,84.055C146.893,85.112 146.858,84.858 148.159,85.813C146.765,87.113 146.608,86.871 146.191,88.81C144.005,87.516 144.172,87.393 143.148,84.966Z" style="fill:rgb(49,106,30);"/>
        <path d="M119.526,61.467C120.999,61.367 122.471,61.268 123.944,61.168C124.635,62.866 124.244,62.817 124.093,64.673C120.624,63.467 117.988,64.736 119.526,61.467Z" style="fill:rgb(53,113,34);"/>
        <path d="M118.619,59.092C120.004,59.146 121.39,59.199 122.776,59.253L123.944,61.168C122.471,61.268 120.999,61.367 119.526,61.467C119.223,60.675 118.921,59.884 118.619,59.092Z" style="fill:rgb(40,101,26);"/>
        <path d="M200.613,71.276L204.381,73.658C203.357,74.481 202.334,75.305 201.311,76.128C200.148,73.707 200.049,73.769 200.613,71.276Z" style="fill:rgb(47,107,31);"/>
        <path d="M183.646,111.467C185.066,113.699 184.956,113.518 185.066,113.699C185.509,114.423 185.31,114.35 185.836,115.211L184.575,117.687C183.953,117.538 183.783,117.993 183.561,117.443C183.161,116.454 183.252,116.531 182.935,115.591L182.913,114.564C183.399,113.026 183.135,113.099 183.646,111.467Z" style="fill:rgb(95,151,54);"/>
        <path d="M170.68,102.39C171.096,103.777 171.07,103.664 171.096,103.777C171.465,105.4 171.308,105.286 171.708,107.05C170.729,106.608 163.35,102.704 170.68,102.39Z" style="fill:rgb(48,107,39);"/>
        <path d="M128.023,92.301C128.796,93.055 129.569,93.809 130.342,94.563C128.172,95.716 128.698,96.148 126.499,97.594C123.327,99.68 126.036,96.304 128.023,92.301Z" style="fill:rgb(103,76,40);"/>
        <path d="M170.44,52.291L170.689,53.501C165.699,53.731 165.048,52.683 164.794,52.274C164.415,51.666 164.903,49.753 170.44,52.291Z" style="fill:rgb(78,132,71);"/>
        <path d="M79.433,76.417C77.193,79.279 77.309,79.171 74.721,81.515C74.755,81.426 74.008,76.311 79.433,76.417Z" style="fill:rgb(69,126,52);"/>
        <path d="M182.239,42.604C184.34,40.858 184.908,41.104 188.502,43.487C188.148,43.827 187.795,44.166 187.441,44.506C185.707,43.872 183.973,43.238 182.239,42.604Z" style="fill:rgb(75,127,68);"/>
        <path d="M296.976,272.944C297.215,272.782 311.807,263.494 300.538,273.532C298.849,275.036 298.594,274.377 296.976,272.944Z" style="fill:rgb(33,133,189);"/>
        <path d="M90.509,82.262C90.482,83.148 91.114,82.838 91.086,83.736C91.034,85.456 91.38,85.263 91.685,86.85C89.924,87.666 90.043,87.149 88.198,86.165C89.146,84.05 89.059,84.152 90.509,82.262Z" style="fill:rgb(176,65,38);"/>
        <path d="M95.828,71.621C97.797,69.503 98.791,71.7 98.802,71.706C97.189,73.058 97.424,73.058 95.622,74.113C94.889,73.863 94.156,73.613 93.422,73.363C94.224,72.782 95.026,72.201 95.828,71.621Z" style="fill:rgb(86,139,58);"/>
        <path d="M110.336,54.81C110.127,58.181 108.505,56.577 105.277,57.341C105.343,56.631 105.408,55.92 105.474,55.21C107.955,54.584 107.857,54.825 110.336,54.81Z" style="fill:rgb(138,168,136);"/>
        <path d="M151.493,54.496C152.045,55.434 152.598,56.371 153.15,57.309C151.267,58.236 151.359,58.202 149.311,58.111C150.307,56.186 150.261,56.288 151.493,54.496Z" style="fill:rgb(72,133,40);"/>
        <path d="M170.44,52.291C172.121,52.762 173.803,53.232 175.485,53.703L173.998,55.701C171.649,54.402 171.828,54.52 171.649,54.402C171.056,54.01 171.303,53.905 170.689,53.501L170.44,52.291Z" style="fill:rgb(165,191,163);"/>
        <path d="M105.474,55.21C105.408,55.92 105.343,56.631 105.277,57.341C104.355,57.728 103.433,58.114 102.51,58.501L101.484,56.361L105.474,55.21Z" style="fill:rgb(200,214,202);"/>
        <path d="M64.365,82.307L65.522,82.474C65.445,83.139 65.369,83.803 65.292,84.467L64.285,86.838L63.438,86.439C63.604,84.226 63.529,84.332 64.365,82.307Z" style="fill:rgb(86,137,74);"/>
        <path d="M115.861,9.283C120.471,9.702 118.263,12.082 117.5,11.927C117.307,11.888 117.5,11.927 115.496,10.492L115.861,9.283Z" style="fill:rgb(99,142,100);"/>
        <path d="M107.365,80.314C110.49,81.866 110.408,82.024 110.709,82.034C108.373,83.638 107.84,83.757 106.416,81.356L107.365,80.314Z" style="fill:rgb(156,84,48);"/>
        <path d="M120.429,67.672C123.667,69.946 118.072,70.26 117.752,67.636C117.52,65.744 118.599,67.648 120.429,67.672Z" style="fill:rgb(73,120,68);"/>
        <path d="M169.144,69.947C170.146,69.882 171.148,69.818 172.151,69.753C172.244,70.229 173.219,70.155 173.312,70.632C173.845,73.336 169.418,70.145 169.144,69.947Z" style="fill:rgb(64,123,35);"/>
        <path d="M174.874,106.511C174.922,106.678 176.845,116.308 173.612,108.281C174.033,107.691 174.453,107.101 174.874,106.511Z" style="fill:rgb(53,109,38);"/>
        <path d="M161.537,48.573C162.375,48.799 163.213,49.025 164.051,49.251C163.77,49.341 155.297,54.024 161.537,48.573Z" style="fill:rgb(60,117,41);"/>
        <path d="M21.453,272.508L21.715,273.456C21.373,274.032 22.241,274.883 21.898,275.46C21.8,275.626 21.747,275.214 19.5,275.155C18.005,275.115 18.85,274.309 18.475,273.82C20.198,273.596 20.035,273.502 21.453,272.508Z" style="fill:rgb(24,98,137);"/>
        <path d="M205.493,79.539C205.612,79.801 205.695,79.632 207.334,82.639C206.832,82.932 206.331,83.225 205.83,83.518C203.594,79.809 204.193,79.277 204.474,79.028C204.758,78.776 205.209,79.791 205.493,79.539Z" style="fill:rgb(98,122,55);"/>
        <path d="M77.847,86.578C77.99,86.771 82.405,94.715 75.927,88.882C77.122,87.722 76.952,87.837 77.847,86.578Z" style="fill:rgb(122,100,66);"/>
        <path d="M170.637,112.467C169.642,111.981 168.684,112.606 169.129,111.082C170.74,105.562 170.64,112.304 170.637,112.467Z" style="fill:rgb(102,115,39);"/>
        <path d="M93.473,78.443C94.459,79.252 94.489,79.196 94.499,80.499C93.828,80.883 93.157,81.268 92.487,81.652C92.574,79.797 92.631,79.975 93.473,78.443Z" style="fill:rgb(151,168,141);"/>
        <path d="M164.439,70.887C165.337,71.913 164.652,71.855 163.511,72.419C160.479,70.641 162.306,70.105 162.504,70.047C163.179,69.849 163.764,71.085 164.439,70.887Z" style="fill:rgb(35,90,29);"/>
        <path d="M62.324,35.306C61.673,36.553 62.011,36.633 60.767,37.587C60.34,37.289 59.914,36.992 59.488,36.694C60.889,35.819 60.757,35.803 62.324,35.306Z" style="fill:rgb(73,126,65);"/>
        <path d="M207.221,79.655C209.443,80.472 209.412,80.285 209.443,80.472C210,83.824 207.326,79.812 207.221,79.655Z" style="fill:rgb(77,131,43);"/>
        <path d="M208.521,34.62C209.182,34.881 209.844,35.142 210.505,35.403C210.115,35.778 209.726,36.152 209.336,36.527C208.085,35.732 207.673,35.668 208.521,34.62Z" style="fill:rgb(75,128,70);"/>
        <path d="M247.669,210.462C248.105,211.793 248.541,213.125 248.977,214.456C248.541,213.125 248.105,211.793 247.669,210.462Z" style="fill:rgb(57,206,237);"/>
        <path d="M134.468,120.226C136.379,118.567 136.194,118.484 136.379,118.567C136.379,118.567 135.991,120.382 135.958,120.54L134.468,120.226Z" style="fill:rgb(109,106,25);"/>
        <path d="M167.435,263.107C167.18,263.433 168.476,263.738 168.222,264.063C168.222,264.063 164.766,264.336 164.465,264.359L167.435,263.107Z" style="fill:rgb(25,127,187);"/>
        <path d="M72.435,250.376C71.362,250.933 70.288,251.49 69.214,252.048C70.553,250.704 70.597,251.056 72.435,250.376Z" style="fill:rgb(54,202,231);"/>
        <path d="M141.178,59.594L142.607,59.796C141.706,60.425 141.813,60.947 140.851,60.459L141.178,59.594Z" style="fill:rgb(87,131,78);"/>
        <path d="M137.636,101.501L138.189,102.41C138.373,103.134 138.558,103.857 138.742,104.581C138.373,103.554 138.005,102.528 137.636,101.501Z" style="fill:rgb(68,134,43);"/>
        <path d="M138.357,70.481C138.734,70.786 139.111,71.091 139.488,71.396C137.814,72.435 137.933,72.538 137.814,72.435C137.814,72.435 138.313,70.637 138.357,70.481Z" style="fill:rgb(59,119,36);"/>
        <path d="M186.565,126.502C187.307,128.173 189.486,128.544 187.616,128.871C187.616,128.871 186.649,126.692 186.565,126.502Z" style="fill:rgb(65,123,44);"/>
        <path d="M160.442,99.804L161.614,100.145L161.601,101.437C161.215,100.893 160.828,100.348 160.442,99.804Z" style="fill:rgb(101,124,48);"/>
        <path d="M217.572,81.441C218.299,81.715 219.027,81.988 219.754,82.262C218.5,82.171 218.597,82.261 217.572,81.441Z" style="fill:rgb(73,81,26);"/>
        <path d="M68.502,35.709C69.14,35.565 69.006,35.473 69.543,35.353C70.662,35.1 69.465,35.535 69.082,36.443L68.502,35.709Z" style="fill:rgb(56,113,41);"/>
        <path d="M19.472,253.535C19.543,254.926 20.933,255.51 19.57,255.472C19.57,255.472 19.48,253.69 19.472,253.535Z" style="fill:rgb(23,145,220);"/>
        <path d="M164.499,76.506C164.549,77.175 164.599,77.843 164.649,78.512C164.035,77.434 163.712,77.383 164.499,76.506Z" style="fill:rgb(131,107,45);"/>
        <path d="M54.844,265.551L55.504,266.616C54.602,266.535 54.71,266.399 54.844,265.551Z" style="fill:rgb(40,113,141);"/>
        <path d="M121.097,19.923C120.604,20.9 120.612,20.763 119.448,21.13C119.998,20.727 120.548,20.325 121.097,19.923Z" style="fill:rgb(120,158,113);"/>
        <path d="M161.614,100.145C162.009,101.89 162.019,101.757 161.864,103.418L161.601,101.437L161.614,100.145Z" style="fill:rgb(101,127,55);"/>
        <path d="M138.189,102.41C138.622,103.191 139.85,102.93 138.742,104.581C138.558,103.857 138.373,103.134 138.189,102.41Z" style="fill:rgb(62,131,36);"/>
        <path d="M206.709,195.492C207.307,195.507 207.905,195.523 208.503,195.538C207.495,196.014 207.466,196.268 206.709,195.492Z" style="fill:rgb(67,200,234);"/>
        <path d="M137.466,134.478C137.483,136.671 137.656,136.64 137.483,136.671C135.928,136.943 137.478,135.973 137.466,134.478Z" style="fill:rgb(79,127,32);"/>
    </g>
</svg>
